<?xml version="1.0" encoding="utf-8" standalone="no"?>
<!DOCTYPE svg PUBLIC "-//W3C//DTD SVG 1.1//EN"
  "http://www.w3.org/Graphics/SVG/1.1/DTD/svg11.dtd">
<svg xmlns:xlink="http://www.w3.org/1999/xlink" width="460.8pt" height="345.6pt" viewBox="0 0 460.8 345.6" xmlns="http://www.w3.org/2000/svg" version="1.1">
 <metadata>
  <rdf:RDF xmlns:dc="http://purl.org/dc/elements/1.1/" xmlns:cc="http://creativecommons.org/ns#" xmlns:rdf="http://www.w3.org/1999/02/22-rdf-syntax-ns#">
   <cc:Work>
    <dc:type rdf:resource="http://purl.org/dc/dcmitype/StillImage"/>
    <dc:date>2025-01-30T09:03:58.268073</dc:date>
    <dc:format>image/svg+xml</dc:format>
    <dc:creator>
     <cc:Agent>
      <dc:title>Matplotlib v3.10.0, https://matplotlib.org/</dc:title>
     </cc:Agent>
    </dc:creator>
   </cc:Work>
  </rdf:RDF>
 </metadata>
 <defs>
  <style type="text/css">*{stroke-linejoin: round; stroke-linecap: butt}</style>
 </defs>
 <g id="figure_1">
  <g id="patch_1">
   <path d="M 0 345.6 
L 460.8 345.6 
L 460.8 0 
L 0 0 
z
" style="fill: #ffffff"/>
  </g>
  <g id="axes_1">
   <g id="patch_2">
    <path d="M 57.6 114.048 
L 414.72 114.048 
L 414.72 41.472 
L 57.6 41.472 
z
" style="fill: #ffffff"/>
   </g>
   <g id="matplotlib.axis_1">
    <g id="xtick_1">
     <g id="line2d_1">
      <path d="M 73.832727 114.048 
L 73.832727 41.472 
" clip-path="url(#p887e2a7ab8)" style="fill: none; stroke: #b0b0b0; stroke-width: 0.8; stroke-linecap: square"/>
     </g>
     <g id="line2d_2">
      <defs>
       <path id="maf91bdf07a" d="M 0 0 
L 0 3.5 
" style="stroke: #000000; stroke-width: 0.8"/>
      </defs>
      <g>
       <use xlink:href="#maf91bdf07a" x="73.832727" y="114.048" style="stroke: #000000; stroke-width: 0.8"/>
      </g>
     </g>
    </g>
    <g id="xtick_2">
     <g id="line2d_3">
      <path d="M 138.660476 114.048 
L 138.660476 41.472 
" clip-path="url(#p887e2a7ab8)" style="fill: none; stroke: #b0b0b0; stroke-width: 0.8; stroke-linecap: square"/>
     </g>
     <g id="line2d_4">
      <g>
       <use xlink:href="#maf91bdf07a" x="138.660476" y="114.048" style="stroke: #000000; stroke-width: 0.8"/>
      </g>
     </g>
    </g>
    <g id="xtick_3">
     <g id="line2d_5">
      <path d="M 203.488225 114.048 
L 203.488225 41.472 
" clip-path="url(#p887e2a7ab8)" style="fill: none; stroke: #b0b0b0; stroke-width: 0.8; stroke-linecap: square"/>
     </g>
     <g id="line2d_6">
      <g>
       <use xlink:href="#maf91bdf07a" x="203.488225" y="114.048" style="stroke: #000000; stroke-width: 0.8"/>
      </g>
     </g>
    </g>
    <g id="xtick_4">
     <g id="line2d_7">
      <path d="M 268.315974 114.048 
L 268.315974 41.472 
" clip-path="url(#p887e2a7ab8)" style="fill: none; stroke: #b0b0b0; stroke-width: 0.8; stroke-linecap: square"/>
     </g>
     <g id="line2d_8">
      <g>
       <use xlink:href="#maf91bdf07a" x="268.315974" y="114.048" style="stroke: #000000; stroke-width: 0.8"/>
      </g>
     </g>
    </g>
    <g id="xtick_5">
     <g id="line2d_9">
      <path d="M 333.143723 114.048 
L 333.143723 41.472 
" clip-path="url(#p887e2a7ab8)" style="fill: none; stroke: #b0b0b0; stroke-width: 0.8; stroke-linecap: square"/>
     </g>
     <g id="line2d_10">
      <g>
       <use xlink:href="#maf91bdf07a" x="333.143723" y="114.048" style="stroke: #000000; stroke-width: 0.8"/>
      </g>
     </g>
    </g>
    <g id="xtick_6">
     <g id="line2d_11">
      <path d="M 397.971472 114.048 
L 397.971472 41.472 
" clip-path="url(#p887e2a7ab8)" style="fill: none; stroke: #b0b0b0; stroke-width: 0.8; stroke-linecap: square"/>
     </g>
     <g id="line2d_12">
      <g>
       <use xlink:href="#maf91bdf07a" x="397.971472" y="114.048" style="stroke: #000000; stroke-width: 0.8"/>
      </g>
     </g>
    </g>
   </g>
   <g id="matplotlib.axis_2">
    <g id="ytick_1">
     <g id="line2d_13">
      <path d="M 57.6 110.749091 
L 414.72 110.749091 
" clip-path="url(#p887e2a7ab8)" style="fill: none; stroke: #b0b0b0; stroke-width: 0.8; stroke-linecap: square"/>
     </g>
     <g id="line2d_14">
      <defs>
       <path id="m00bfe34f2c" d="M 0 0 
L -3.5 0 
" style="stroke: #000000; stroke-width: 0.8"/>
      </defs>
      <g>
       <use xlink:href="#m00bfe34f2c" x="57.6" y="110.749091" style="stroke: #000000; stroke-width: 0.8"/>
      </g>
     </g>
     <g id="text_1">
      <!-- 0 -->
      <g transform="translate(44.2375 114.54831) scale(0.1 -0.1)">
       <defs>
        <path id="DejaVuSans-30" d="M 2034 4250 
Q 1547 4250 1301 3770 
Q 1056 3291 1056 2328 
Q 1056 1369 1301 889 
Q 1547 409 2034 409 
Q 2525 409 2770 889 
Q 3016 1369 3016 2328 
Q 3016 3291 2770 3770 
Q 2525 4250 2034 4250 
z
M 2034 4750 
Q 2819 4750 3233 4129 
Q 3647 3509 3647 2328 
Q 3647 1150 3233 529 
Q 2819 -91 2034 -91 
Q 1250 -91 836 529 
Q 422 1150 422 2328 
Q 422 3509 836 4129 
Q 1250 4750 2034 4750 
z
" transform="scale(0.015625)"/>
       </defs>
       <use xlink:href="#DejaVuSans-30"/>
      </g>
     </g>
    </g>
    <g id="ytick_2">
     <g id="line2d_15">
      <path d="M 57.6 70.762314 
L 414.72 70.762314 
" clip-path="url(#p887e2a7ab8)" style="fill: none; stroke: #b0b0b0; stroke-width: 0.8; stroke-linecap: square"/>
     </g>
     <g id="line2d_16">
      <g>
       <use xlink:href="#m00bfe34f2c" x="57.6" y="70.762314" style="stroke: #000000; stroke-width: 0.8"/>
      </g>
     </g>
     <g id="text_2">
      <!-- 2 -->
      <g transform="translate(44.2375 74.561533) scale(0.1 -0.1)">
       <defs>
        <path id="DejaVuSans-32" d="M 1228 531 
L 3431 531 
L 3431 0 
L 469 0 
L 469 531 
Q 828 903 1448 1529 
Q 2069 2156 2228 2338 
Q 2531 2678 2651 2914 
Q 2772 3150 2772 3378 
Q 2772 3750 2511 3984 
Q 2250 4219 1831 4219 
Q 1534 4219 1204 4116 
Q 875 4013 500 3803 
L 500 4441 
Q 881 4594 1212 4672 
Q 1544 4750 1819 4750 
Q 2544 4750 2975 4387 
Q 3406 4025 3406 3419 
Q 3406 3131 3298 2873 
Q 3191 2616 2906 2266 
Q 2828 2175 2409 1742 
Q 1991 1309 1228 531 
z
" transform="scale(0.015625)"/>
       </defs>
       <use xlink:href="#DejaVuSans-32"/>
      </g>
     </g>
    </g>
    <g id="text_3">
     <!-- Vin (pin A) [V] -->
     <g transform="translate(38.157812 112.768594) rotate(-90) scale(0.1 -0.1)">
      <defs>
       <path id="DejaVuSans-56" d="M 1831 0 
L 50 4666 
L 709 4666 
L 2188 738 
L 3669 4666 
L 4325 4666 
L 2547 0 
L 1831 0 
z
" transform="scale(0.015625)"/>
       <path id="DejaVuSans-69" d="M 603 3500 
L 1178 3500 
L 1178 0 
L 603 0 
L 603 3500 
z
M 603 4863 
L 1178 4863 
L 1178 4134 
L 603 4134 
L 603 4863 
z
" transform="scale(0.015625)"/>
       <path id="DejaVuSans-6e" d="M 3513 2113 
L 3513 0 
L 2938 0 
L 2938 2094 
Q 2938 2591 2744 2837 
Q 2550 3084 2163 3084 
Q 1697 3084 1428 2787 
Q 1159 2491 1159 1978 
L 1159 0 
L 581 0 
L 581 3500 
L 1159 3500 
L 1159 2956 
Q 1366 3272 1645 3428 
Q 1925 3584 2291 3584 
Q 2894 3584 3203 3211 
Q 3513 2838 3513 2113 
z
" transform="scale(0.015625)"/>
       <path id="DejaVuSans-20" transform="scale(0.015625)"/>
       <path id="DejaVuSans-28" d="M 1984 4856 
Q 1566 4138 1362 3434 
Q 1159 2731 1159 2009 
Q 1159 1288 1364 580 
Q 1569 -128 1984 -844 
L 1484 -844 
Q 1016 -109 783 600 
Q 550 1309 550 2009 
Q 550 2706 781 3412 
Q 1013 4119 1484 4856 
L 1984 4856 
z
" transform="scale(0.015625)"/>
       <path id="DejaVuSans-70" d="M 1159 525 
L 1159 -1331 
L 581 -1331 
L 581 3500 
L 1159 3500 
L 1159 2969 
Q 1341 3281 1617 3432 
Q 1894 3584 2278 3584 
Q 2916 3584 3314 3078 
Q 3713 2572 3713 1747 
Q 3713 922 3314 415 
Q 2916 -91 2278 -91 
Q 1894 -91 1617 61 
Q 1341 213 1159 525 
z
M 3116 1747 
Q 3116 2381 2855 2742 
Q 2594 3103 2138 3103 
Q 1681 3103 1420 2742 
Q 1159 2381 1159 1747 
Q 1159 1113 1420 752 
Q 1681 391 2138 391 
Q 2594 391 2855 752 
Q 3116 1113 3116 1747 
z
" transform="scale(0.015625)"/>
       <path id="DejaVuSans-41" d="M 2188 4044 
L 1331 1722 
L 3047 1722 
L 2188 4044 
z
M 1831 4666 
L 2547 4666 
L 4325 0 
L 3669 0 
L 3244 1197 
L 1141 1197 
L 716 0 
L 50 0 
L 1831 4666 
z
" transform="scale(0.015625)"/>
       <path id="DejaVuSans-29" d="M 513 4856 
L 1013 4856 
Q 1481 4119 1714 3412 
Q 1947 2706 1947 2009 
Q 1947 1309 1714 600 
Q 1481 -109 1013 -844 
L 513 -844 
Q 928 -128 1133 580 
Q 1338 1288 1338 2009 
Q 1338 2731 1133 3434 
Q 928 4138 513 4856 
z
" transform="scale(0.015625)"/>
       <path id="DejaVuSans-5b" d="M 550 4863 
L 1875 4863 
L 1875 4416 
L 1125 4416 
L 1125 -397 
L 1875 -397 
L 1875 -844 
L 550 -844 
L 550 4863 
z
" transform="scale(0.015625)"/>
       <path id="DejaVuSans-5d" d="M 1947 4863 
L 1947 -844 
L 622 -844 
L 622 -397 
L 1369 -397 
L 1369 4416 
L 622 4416 
L 622 4863 
L 1947 4863 
z
" transform="scale(0.015625)"/>
      </defs>
      <use xlink:href="#DejaVuSans-56"/>
      <use xlink:href="#DejaVuSans-69" transform="translate(66.158203 0)"/>
      <use xlink:href="#DejaVuSans-6e" transform="translate(93.941406 0)"/>
      <use xlink:href="#DejaVuSans-20" transform="translate(157.320312 0)"/>
      <use xlink:href="#DejaVuSans-28" transform="translate(189.107422 0)"/>
      <use xlink:href="#DejaVuSans-70" transform="translate(228.121094 0)"/>
      <use xlink:href="#DejaVuSans-69" transform="translate(291.597656 0)"/>
      <use xlink:href="#DejaVuSans-6e" transform="translate(319.380859 0)"/>
      <use xlink:href="#DejaVuSans-20" transform="translate(382.759766 0)"/>
      <use xlink:href="#DejaVuSans-41" transform="translate(414.546875 0)"/>
      <use xlink:href="#DejaVuSans-29" transform="translate(482.955078 0)"/>
      <use xlink:href="#DejaVuSans-20" transform="translate(521.96875 0)"/>
      <use xlink:href="#DejaVuSans-5b" transform="translate(553.755859 0)"/>
      <use xlink:href="#DejaVuSans-56" transform="translate(592.769531 0)"/>
      <use xlink:href="#DejaVuSans-5d" transform="translate(661.177734 0)"/>
     </g>
    </g>
   </g>
   <g id="line2d_17">
    <path d="M 73.832727 44.770909 
L 73.913762 44.770909 
L 73.994797 44.770909 
L 74.156866 44.770909 
L 74.481005 44.770909 
L 75.129282 44.770909 
L 76.425837 44.770909 
L 79.018947 44.770909 
L 84.205167 44.770909 
L 92.308636 44.770909 
L 100.412104 44.770909 
L 106.246602 44.770909 
L 107.056949 46.420364 
L 108.677642 49.719273 
L 111.91903 56.317091 
L 118.401805 69.512727 
L 123.190936 79.260966 
L 128.894141 90.869793 
L 134.776113 102.842502 
L 138.660476 110.749091 
L 139.235094 110.749091 
L 140.38433 110.749091 
L 142.682802 110.749091 
L 147.279745 110.749091 
L 155.383214 110.749091 
L 163.486683 110.749091 
L 171.590151 110.749091 
L 179.69362 110.749091 
L 187.797088 110.749091 
L 195.900557 110.749091 
L 204.004026 110.749091 
L 212.107494 110.749091 
L 220.210963 110.749091 
L 228.314432 110.749091 
L 236.4179 110.749091 
L 244.521369 110.749091 
L 252.624837 110.749091 
L 260.728306 110.749091 
L 268.831775 110.749091 
L 276.935243 110.749091 
L 285.038712 110.749091 
L 293.142181 110.749091 
L 301.245649 110.749091 
L 309.349118 110.749091 
L 317.452586 110.749091 
L 325.556055 110.749091 
L 333.659524 110.749091 
L 341.762992 110.749091 
L 349.866461 110.749091 
L 357.96993 110.749091 
L 366.073398 110.749091 
L 374.176867 110.749091 
L 382.280335 110.749091 
L 390.383804 110.749091 
L 398.487273 110.749091 
" clip-path="url(#p887e2a7ab8)" style="fill: none; stroke: #1f77b4; stroke-width: 1.5; stroke-linecap: square"/>
   </g>
   <g id="line2d_18">
    <path d="M 57.6 97.553455 
L 414.72 97.553455 
" clip-path="url(#p887e2a7ab8)" style="fill: none; stroke-dasharray: 5.55,2.4; stroke-dashoffset: 0; stroke: #808080; stroke-width: 1.5"/>
   </g>
   <g id="line2d_19">
    <path d="M 57.6 57.966545 
L 414.72 57.966545 
" clip-path="url(#p887e2a7ab8)" style="fill: none; stroke-dasharray: 5.55,2.4; stroke-dashoffset: 0; stroke: #808080; stroke-width: 1.5"/>
   </g>
   <g id="line2d_20">
    <path d="M 106.246602 114.048 
L 106.246602 41.472 
" clip-path="url(#p887e2a7ab8)" style="fill: none; stroke-dasharray: 1.5,2.475; stroke-dashoffset: 0; stroke: #ff0000; stroke-width: 1.5"/>
   </g>
   <g id="line2d_21">
    <path d="M 138.660476 114.048 
L 138.660476 41.472 
" clip-path="url(#p887e2a7ab8)" style="fill: none; stroke-dasharray: 1.5,2.475; stroke-dashoffset: 0; stroke: #ff0000; stroke-width: 1.5"/>
   </g>
   <g id="patch_3">
    <path d="M 57.6 114.048 
L 57.6 41.472 
" style="fill: none; stroke: #000000; stroke-width: 0.8; stroke-linejoin: miter; stroke-linecap: square"/>
   </g>
   <g id="patch_4">
    <path d="M 414.72 114.048 
L 414.72 41.472 
" style="fill: none; stroke: #000000; stroke-width: 0.8; stroke-linejoin: miter; stroke-linecap: square"/>
   </g>
   <g id="patch_5">
    <path d="M 57.6 114.048 
L 414.72 114.048 
" style="fill: none; stroke: #000000; stroke-width: 0.8; stroke-linejoin: miter; stroke-linecap: square"/>
   </g>
   <g id="patch_6">
    <path d="M 57.6 41.472 
L 414.72 41.472 
" style="fill: none; stroke: #000000; stroke-width: 0.8; stroke-linejoin: miter; stroke-linecap: square"/>
   </g>
   <g id="text_4">
    <!-- I/O Voltages vs. Time -->
    <g transform="translate(173.027812 35.472) scale(0.12 -0.12)">
     <defs>
      <path id="DejaVuSans-49" d="M 628 4666 
L 1259 4666 
L 1259 0 
L 628 0 
L 628 4666 
z
" transform="scale(0.015625)"/>
      <path id="DejaVuSans-2f" d="M 1625 4666 
L 2156 4666 
L 531 -594 
L 0 -594 
L 1625 4666 
z
" transform="scale(0.015625)"/>
      <path id="DejaVuSans-4f" d="M 2522 4238 
Q 1834 4238 1429 3725 
Q 1025 3213 1025 2328 
Q 1025 1447 1429 934 
Q 1834 422 2522 422 
Q 3209 422 3611 934 
Q 4013 1447 4013 2328 
Q 4013 3213 3611 3725 
Q 3209 4238 2522 4238 
z
M 2522 4750 
Q 3503 4750 4090 4092 
Q 4678 3434 4678 2328 
Q 4678 1225 4090 567 
Q 3503 -91 2522 -91 
Q 1538 -91 948 565 
Q 359 1222 359 2328 
Q 359 3434 948 4092 
Q 1538 4750 2522 4750 
z
" transform="scale(0.015625)"/>
      <path id="DejaVuSans-6f" d="M 1959 3097 
Q 1497 3097 1228 2736 
Q 959 2375 959 1747 
Q 959 1119 1226 758 
Q 1494 397 1959 397 
Q 2419 397 2687 759 
Q 2956 1122 2956 1747 
Q 2956 2369 2687 2733 
Q 2419 3097 1959 3097 
z
M 1959 3584 
Q 2709 3584 3137 3096 
Q 3566 2609 3566 1747 
Q 3566 888 3137 398 
Q 2709 -91 1959 -91 
Q 1206 -91 779 398 
Q 353 888 353 1747 
Q 353 2609 779 3096 
Q 1206 3584 1959 3584 
z
" transform="scale(0.015625)"/>
      <path id="DejaVuSans-6c" d="M 603 4863 
L 1178 4863 
L 1178 0 
L 603 0 
L 603 4863 
z
" transform="scale(0.015625)"/>
      <path id="DejaVuSans-74" d="M 1172 4494 
L 1172 3500 
L 2356 3500 
L 2356 3053 
L 1172 3053 
L 1172 1153 
Q 1172 725 1289 603 
Q 1406 481 1766 481 
L 2356 481 
L 2356 0 
L 1766 0 
Q 1100 0 847 248 
Q 594 497 594 1153 
L 594 3053 
L 172 3053 
L 172 3500 
L 594 3500 
L 594 4494 
L 1172 4494 
z
" transform="scale(0.015625)"/>
      <path id="DejaVuSans-61" d="M 2194 1759 
Q 1497 1759 1228 1600 
Q 959 1441 959 1056 
Q 959 750 1161 570 
Q 1363 391 1709 391 
Q 2188 391 2477 730 
Q 2766 1069 2766 1631 
L 2766 1759 
L 2194 1759 
z
M 3341 1997 
L 3341 0 
L 2766 0 
L 2766 531 
Q 2569 213 2275 61 
Q 1981 -91 1556 -91 
Q 1019 -91 701 211 
Q 384 513 384 1019 
Q 384 1609 779 1909 
Q 1175 2209 1959 2209 
L 2766 2209 
L 2766 2266 
Q 2766 2663 2505 2880 
Q 2244 3097 1772 3097 
Q 1472 3097 1187 3025 
Q 903 2953 641 2809 
L 641 3341 
Q 956 3463 1253 3523 
Q 1550 3584 1831 3584 
Q 2591 3584 2966 3190 
Q 3341 2797 3341 1997 
z
" transform="scale(0.015625)"/>
      <path id="DejaVuSans-67" d="M 2906 1791 
Q 2906 2416 2648 2759 
Q 2391 3103 1925 3103 
Q 1463 3103 1205 2759 
Q 947 2416 947 1791 
Q 947 1169 1205 825 
Q 1463 481 1925 481 
Q 2391 481 2648 825 
Q 2906 1169 2906 1791 
z
M 3481 434 
Q 3481 -459 3084 -895 
Q 2688 -1331 1869 -1331 
Q 1566 -1331 1297 -1286 
Q 1028 -1241 775 -1147 
L 775 -588 
Q 1028 -725 1275 -790 
Q 1522 -856 1778 -856 
Q 2344 -856 2625 -561 
Q 2906 -266 2906 331 
L 2906 616 
Q 2728 306 2450 153 
Q 2172 0 1784 0 
Q 1141 0 747 490 
Q 353 981 353 1791 
Q 353 2603 747 3093 
Q 1141 3584 1784 3584 
Q 2172 3584 2450 3431 
Q 2728 3278 2906 2969 
L 2906 3500 
L 3481 3500 
L 3481 434 
z
" transform="scale(0.015625)"/>
      <path id="DejaVuSans-65" d="M 3597 1894 
L 3597 1613 
L 953 1613 
Q 991 1019 1311 708 
Q 1631 397 2203 397 
Q 2534 397 2845 478 
Q 3156 559 3463 722 
L 3463 178 
Q 3153 47 2828 -22 
Q 2503 -91 2169 -91 
Q 1331 -91 842 396 
Q 353 884 353 1716 
Q 353 2575 817 3079 
Q 1281 3584 2069 3584 
Q 2775 3584 3186 3129 
Q 3597 2675 3597 1894 
z
M 3022 2063 
Q 3016 2534 2758 2815 
Q 2500 3097 2075 3097 
Q 1594 3097 1305 2825 
Q 1016 2553 972 2059 
L 3022 2063 
z
" transform="scale(0.015625)"/>
      <path id="DejaVuSans-73" d="M 2834 3397 
L 2834 2853 
Q 2591 2978 2328 3040 
Q 2066 3103 1784 3103 
Q 1356 3103 1142 2972 
Q 928 2841 928 2578 
Q 928 2378 1081 2264 
Q 1234 2150 1697 2047 
L 1894 2003 
Q 2506 1872 2764 1633 
Q 3022 1394 3022 966 
Q 3022 478 2636 193 
Q 2250 -91 1575 -91 
Q 1294 -91 989 -36 
Q 684 19 347 128 
L 347 722 
Q 666 556 975 473 
Q 1284 391 1588 391 
Q 1994 391 2212 530 
Q 2431 669 2431 922 
Q 2431 1156 2273 1281 
Q 2116 1406 1581 1522 
L 1381 1569 
Q 847 1681 609 1914 
Q 372 2147 372 2553 
Q 372 3047 722 3315 
Q 1072 3584 1716 3584 
Q 2034 3584 2315 3537 
Q 2597 3491 2834 3397 
z
" transform="scale(0.015625)"/>
      <path id="DejaVuSans-76" d="M 191 3500 
L 800 3500 
L 1894 563 
L 2988 3500 
L 3597 3500 
L 2284 0 
L 1503 0 
L 191 3500 
z
" transform="scale(0.015625)"/>
      <path id="DejaVuSans-2e" d="M 684 794 
L 1344 794 
L 1344 0 
L 684 0 
L 684 794 
z
" transform="scale(0.015625)"/>
      <path id="DejaVuSans-54" d="M -19 4666 
L 3928 4666 
L 3928 4134 
L 2272 4134 
L 2272 0 
L 1638 0 
L 1638 4134 
L -19 4134 
L -19 4666 
z
" transform="scale(0.015625)"/>
      <path id="DejaVuSans-6d" d="M 3328 2828 
Q 3544 3216 3844 3400 
Q 4144 3584 4550 3584 
Q 5097 3584 5394 3201 
Q 5691 2819 5691 2113 
L 5691 0 
L 5113 0 
L 5113 2094 
Q 5113 2597 4934 2840 
Q 4756 3084 4391 3084 
Q 3944 3084 3684 2787 
Q 3425 2491 3425 1978 
L 3425 0 
L 2847 0 
L 2847 2094 
Q 2847 2600 2669 2842 
Q 2491 3084 2119 3084 
Q 1678 3084 1418 2786 
Q 1159 2488 1159 1978 
L 1159 0 
L 581 0 
L 581 3500 
L 1159 3500 
L 1159 2956 
Q 1356 3278 1631 3431 
Q 1906 3584 2284 3584 
Q 2666 3584 2933 3390 
Q 3200 3197 3328 2828 
z
" transform="scale(0.015625)"/>
     </defs>
     <use xlink:href="#DejaVuSans-49"/>
     <use xlink:href="#DejaVuSans-2f" transform="translate(29.492188 0)"/>
     <use xlink:href="#DejaVuSans-4f" transform="translate(63.183594 0)"/>
     <use xlink:href="#DejaVuSans-20" transform="translate(141.894531 0)"/>
     <use xlink:href="#DejaVuSans-56" transform="translate(173.681641 0)"/>
     <use xlink:href="#DejaVuSans-6f" transform="translate(234.339844 0)"/>
     <use xlink:href="#DejaVuSans-6c" transform="translate(295.521484 0)"/>
     <use xlink:href="#DejaVuSans-74" transform="translate(323.304688 0)"/>
     <use xlink:href="#DejaVuSans-61" transform="translate(362.513672 0)"/>
     <use xlink:href="#DejaVuSans-67" transform="translate(423.792969 0)"/>
     <use xlink:href="#DejaVuSans-65" transform="translate(487.269531 0)"/>
     <use xlink:href="#DejaVuSans-73" transform="translate(548.792969 0)"/>
     <use xlink:href="#DejaVuSans-20" transform="translate(600.892578 0)"/>
     <use xlink:href="#DejaVuSans-76" transform="translate(632.679688 0)"/>
     <use xlink:href="#DejaVuSans-73" transform="translate(691.859375 0)"/>
     <use xlink:href="#DejaVuSans-2e" transform="translate(743.958984 0)"/>
     <use xlink:href="#DejaVuSans-20" transform="translate(775.746094 0)"/>
     <use xlink:href="#DejaVuSans-54" transform="translate(807.533203 0)"/>
     <use xlink:href="#DejaVuSans-69" transform="translate(865.492188 0)"/>
     <use xlink:href="#DejaVuSans-6d" transform="translate(893.275391 0)"/>
     <use xlink:href="#DejaVuSans-65" transform="translate(990.6875 0)"/>
    </g>
   </g>
  </g>
  <g id="axes_2">
   <g id="patch_7">
    <path d="M 57.6 307.584 
L 414.72 307.584 
L 414.72 138.24 
L 57.6 138.24 
z
" style="fill: #ffffff"/>
   </g>
   <g id="matplotlib.axis_3">
    <g id="xtick_7">
     <g id="line2d_22">
      <path d="M 73.832727 307.584 
L 73.832727 138.24 
" clip-path="url(#p7735b0b13b)" style="fill: none; stroke: #b0b0b0; stroke-width: 0.8; stroke-linecap: square"/>
     </g>
     <g id="line2d_23">
      <g>
       <use xlink:href="#maf91bdf07a" x="73.832727" y="307.584" style="stroke: #000000; stroke-width: 0.8"/>
      </g>
     </g>
     <g id="text_5">
      <!-- 0.0 -->
      <g transform="translate(65.881165 322.182437) scale(0.1 -0.1)">
       <use xlink:href="#DejaVuSans-30"/>
       <use xlink:href="#DejaVuSans-2e" transform="translate(63.623047 0)"/>
       <use xlink:href="#DejaVuSans-30" transform="translate(95.410156 0)"/>
      </g>
     </g>
    </g>
    <g id="xtick_8">
     <g id="line2d_24">
      <path d="M 138.660476 307.584 
L 138.660476 138.24 
" clip-path="url(#p7735b0b13b)" style="fill: none; stroke: #b0b0b0; stroke-width: 0.8; stroke-linecap: square"/>
     </g>
     <g id="line2d_25">
      <g>
       <use xlink:href="#maf91bdf07a" x="138.660476" y="307.584" style="stroke: #000000; stroke-width: 0.8"/>
      </g>
     </g>
     <g id="text_6">
      <!-- 0.2 -->
      <g transform="translate(130.708914 322.182437) scale(0.1 -0.1)">
       <use xlink:href="#DejaVuSans-30"/>
       <use xlink:href="#DejaVuSans-2e" transform="translate(63.623047 0)"/>
       <use xlink:href="#DejaVuSans-32" transform="translate(95.410156 0)"/>
      </g>
     </g>
    </g>
    <g id="xtick_9">
     <g id="line2d_26">
      <path d="M 203.488225 307.584 
L 203.488225 138.24 
" clip-path="url(#p7735b0b13b)" style="fill: none; stroke: #b0b0b0; stroke-width: 0.8; stroke-linecap: square"/>
     </g>
     <g id="line2d_27">
      <g>
       <use xlink:href="#maf91bdf07a" x="203.488225" y="307.584" style="stroke: #000000; stroke-width: 0.8"/>
      </g>
     </g>
     <g id="text_7">
      <!-- 0.4 -->
      <g transform="translate(195.536663 322.182437) scale(0.1 -0.1)">
       <defs>
        <path id="DejaVuSans-34" d="M 2419 4116 
L 825 1625 
L 2419 1625 
L 2419 4116 
z
M 2253 4666 
L 3047 4666 
L 3047 1625 
L 3713 1625 
L 3713 1100 
L 3047 1100 
L 3047 0 
L 2419 0 
L 2419 1100 
L 313 1100 
L 313 1709 
L 2253 4666 
z
" transform="scale(0.015625)"/>
       </defs>
       <use xlink:href="#DejaVuSans-30"/>
       <use xlink:href="#DejaVuSans-2e" transform="translate(63.623047 0)"/>
       <use xlink:href="#DejaVuSans-34" transform="translate(95.410156 0)"/>
      </g>
     </g>
    </g>
    <g id="xtick_10">
     <g id="line2d_28">
      <path d="M 268.315974 307.584 
L 268.315974 138.24 
" clip-path="url(#p7735b0b13b)" style="fill: none; stroke: #b0b0b0; stroke-width: 0.8; stroke-linecap: square"/>
     </g>
     <g id="line2d_29">
      <g>
       <use xlink:href="#maf91bdf07a" x="268.315974" y="307.584" style="stroke: #000000; stroke-width: 0.8"/>
      </g>
     </g>
     <g id="text_8">
      <!-- 0.6 -->
      <g transform="translate(260.364412 322.182437) scale(0.1 -0.1)">
       <defs>
        <path id="DejaVuSans-36" d="M 2113 2584 
Q 1688 2584 1439 2293 
Q 1191 2003 1191 1497 
Q 1191 994 1439 701 
Q 1688 409 2113 409 
Q 2538 409 2786 701 
Q 3034 994 3034 1497 
Q 3034 2003 2786 2293 
Q 2538 2584 2113 2584 
z
M 3366 4563 
L 3366 3988 
Q 3128 4100 2886 4159 
Q 2644 4219 2406 4219 
Q 1781 4219 1451 3797 
Q 1122 3375 1075 2522 
Q 1259 2794 1537 2939 
Q 1816 3084 2150 3084 
Q 2853 3084 3261 2657 
Q 3669 2231 3669 1497 
Q 3669 778 3244 343 
Q 2819 -91 2113 -91 
Q 1303 -91 875 529 
Q 447 1150 447 2328 
Q 447 3434 972 4092 
Q 1497 4750 2381 4750 
Q 2619 4750 2861 4703 
Q 3103 4656 3366 4563 
z
" transform="scale(0.015625)"/>
       </defs>
       <use xlink:href="#DejaVuSans-30"/>
       <use xlink:href="#DejaVuSans-2e" transform="translate(63.623047 0)"/>
       <use xlink:href="#DejaVuSans-36" transform="translate(95.410156 0)"/>
      </g>
     </g>
    </g>
    <g id="xtick_11">
     <g id="line2d_30">
      <path d="M 333.143723 307.584 
L 333.143723 138.24 
" clip-path="url(#p7735b0b13b)" style="fill: none; stroke: #b0b0b0; stroke-width: 0.8; stroke-linecap: square"/>
     </g>
     <g id="line2d_31">
      <g>
       <use xlink:href="#maf91bdf07a" x="333.143723" y="307.584" style="stroke: #000000; stroke-width: 0.8"/>
      </g>
     </g>
     <g id="text_9">
      <!-- 0.8 -->
      <g transform="translate(325.192161 322.182437) scale(0.1 -0.1)">
       <defs>
        <path id="DejaVuSans-38" d="M 2034 2216 
Q 1584 2216 1326 1975 
Q 1069 1734 1069 1313 
Q 1069 891 1326 650 
Q 1584 409 2034 409 
Q 2484 409 2743 651 
Q 3003 894 3003 1313 
Q 3003 1734 2745 1975 
Q 2488 2216 2034 2216 
z
M 1403 2484 
Q 997 2584 770 2862 
Q 544 3141 544 3541 
Q 544 4100 942 4425 
Q 1341 4750 2034 4750 
Q 2731 4750 3128 4425 
Q 3525 4100 3525 3541 
Q 3525 3141 3298 2862 
Q 3072 2584 2669 2484 
Q 3125 2378 3379 2068 
Q 3634 1759 3634 1313 
Q 3634 634 3220 271 
Q 2806 -91 2034 -91 
Q 1263 -91 848 271 
Q 434 634 434 1313 
Q 434 1759 690 2068 
Q 947 2378 1403 2484 
z
M 1172 3481 
Q 1172 3119 1398 2916 
Q 1625 2713 2034 2713 
Q 2441 2713 2670 2916 
Q 2900 3119 2900 3481 
Q 2900 3844 2670 4047 
Q 2441 4250 2034 4250 
Q 1625 4250 1398 4047 
Q 1172 3844 1172 3481 
z
" transform="scale(0.015625)"/>
       </defs>
       <use xlink:href="#DejaVuSans-30"/>
       <use xlink:href="#DejaVuSans-2e" transform="translate(63.623047 0)"/>
       <use xlink:href="#DejaVuSans-38" transform="translate(95.410156 0)"/>
      </g>
     </g>
    </g>
    <g id="xtick_12">
     <g id="line2d_32">
      <path d="M 397.971472 307.584 
L 397.971472 138.24 
" clip-path="url(#p7735b0b13b)" style="fill: none; stroke: #b0b0b0; stroke-width: 0.8; stroke-linecap: square"/>
     </g>
     <g id="line2d_33">
      <g>
       <use xlink:href="#maf91bdf07a" x="397.971472" y="307.584" style="stroke: #000000; stroke-width: 0.8"/>
      </g>
     </g>
     <g id="text_10">
      <!-- 1.0 -->
      <g transform="translate(390.01991 322.182437) scale(0.1 -0.1)">
       <defs>
        <path id="DejaVuSans-31" d="M 794 531 
L 1825 531 
L 1825 4091 
L 703 3866 
L 703 4441 
L 1819 4666 
L 2450 4666 
L 2450 531 
L 3481 531 
L 3481 0 
L 794 0 
L 794 531 
z
" transform="scale(0.015625)"/>
       </defs>
       <use xlink:href="#DejaVuSans-31"/>
       <use xlink:href="#DejaVuSans-2e" transform="translate(63.623047 0)"/>
       <use xlink:href="#DejaVuSans-30" transform="translate(95.410156 0)"/>
      </g>
     </g>
    </g>
    <g id="text_11">
     <!-- Time [ns] -->
     <g transform="translate(212.662344 335.860562) scale(0.1 -0.1)">
      <use xlink:href="#DejaVuSans-54"/>
      <use xlink:href="#DejaVuSans-69" transform="translate(57.958984 0)"/>
      <use xlink:href="#DejaVuSans-6d" transform="translate(85.742188 0)"/>
      <use xlink:href="#DejaVuSans-65" transform="translate(183.154297 0)"/>
      <use xlink:href="#DejaVuSans-20" transform="translate(244.677734 0)"/>
      <use xlink:href="#DejaVuSans-5b" transform="translate(276.464844 0)"/>
      <use xlink:href="#DejaVuSans-6e" transform="translate(315.478516 0)"/>
      <use xlink:href="#DejaVuSans-73" transform="translate(378.857422 0)"/>
      <use xlink:href="#DejaVuSans-5d" transform="translate(430.957031 0)"/>
     </g>
    </g>
   </g>
   <g id="matplotlib.axis_4">
    <g id="ytick_3">
     <g id="line2d_34">
      <path d="M 57.6 296.359926 
L 414.72 296.359926 
" clip-path="url(#p7735b0b13b)" style="fill: none; stroke: #b0b0b0; stroke-width: 0.8; stroke-linecap: square"/>
     </g>
     <g id="line2d_35">
      <g>
       <use xlink:href="#m00bfe34f2c" x="57.6" y="296.359926" style="stroke: #000000; stroke-width: 0.8"/>
      </g>
     </g>
     <g id="text_12">
      <!-- 0.0 -->
      <g transform="translate(34.696875 300.159145) scale(0.1 -0.1)">
       <use xlink:href="#DejaVuSans-30"/>
       <use xlink:href="#DejaVuSans-2e" transform="translate(63.623047 0)"/>
       <use xlink:href="#DejaVuSans-30" transform="translate(95.410156 0)"/>
      </g>
     </g>
    </g>
    <g id="ytick_4">
     <g id="line2d_36">
      <path d="M 57.6 270.386932 
L 414.72 270.386932 
" clip-path="url(#p7735b0b13b)" style="fill: none; stroke: #b0b0b0; stroke-width: 0.8; stroke-linecap: square"/>
     </g>
     <g id="line2d_37">
      <g>
       <use xlink:href="#m00bfe34f2c" x="57.6" y="270.386932" style="stroke: #000000; stroke-width: 0.8"/>
      </g>
     </g>
     <g id="text_13">
      <!-- 0.5 -->
      <g transform="translate(34.696875 274.186151) scale(0.1 -0.1)">
       <defs>
        <path id="DejaVuSans-35" d="M 691 4666 
L 3169 4666 
L 3169 4134 
L 1269 4134 
L 1269 2991 
Q 1406 3038 1543 3061 
Q 1681 3084 1819 3084 
Q 2600 3084 3056 2656 
Q 3513 2228 3513 1497 
Q 3513 744 3044 326 
Q 2575 -91 1722 -91 
Q 1428 -91 1123 -41 
Q 819 9 494 109 
L 494 744 
Q 775 591 1075 516 
Q 1375 441 1709 441 
Q 2250 441 2565 725 
Q 2881 1009 2881 1497 
Q 2881 1984 2565 2268 
Q 2250 2553 1709 2553 
Q 1456 2553 1204 2497 
Q 953 2441 691 2322 
L 691 4666 
z
" transform="scale(0.015625)"/>
       </defs>
       <use xlink:href="#DejaVuSans-30"/>
       <use xlink:href="#DejaVuSans-2e" transform="translate(63.623047 0)"/>
       <use xlink:href="#DejaVuSans-35" transform="translate(95.410156 0)"/>
      </g>
     </g>
    </g>
    <g id="ytick_5">
     <g id="line2d_38">
      <path d="M 57.6 244.413938 
L 414.72 244.413938 
" clip-path="url(#p7735b0b13b)" style="fill: none; stroke: #b0b0b0; stroke-width: 0.8; stroke-linecap: square"/>
     </g>
     <g id="line2d_39">
      <g>
       <use xlink:href="#m00bfe34f2c" x="57.6" y="244.413938" style="stroke: #000000; stroke-width: 0.8"/>
      </g>
     </g>
     <g id="text_14">
      <!-- 1.0 -->
      <g transform="translate(34.696875 248.213157) scale(0.1 -0.1)">
       <use xlink:href="#DejaVuSans-31"/>
       <use xlink:href="#DejaVuSans-2e" transform="translate(63.623047 0)"/>
       <use xlink:href="#DejaVuSans-30" transform="translate(95.410156 0)"/>
      </g>
     </g>
    </g>
    <g id="ytick_6">
     <g id="line2d_40">
      <path d="M 57.6 218.440944 
L 414.72 218.440944 
" clip-path="url(#p7735b0b13b)" style="fill: none; stroke: #b0b0b0; stroke-width: 0.8; stroke-linecap: square"/>
     </g>
     <g id="line2d_41">
      <g>
       <use xlink:href="#m00bfe34f2c" x="57.6" y="218.440944" style="stroke: #000000; stroke-width: 0.8"/>
      </g>
     </g>
     <g id="text_15">
      <!-- 1.5 -->
      <g transform="translate(34.696875 222.240163) scale(0.1 -0.1)">
       <use xlink:href="#DejaVuSans-31"/>
       <use xlink:href="#DejaVuSans-2e" transform="translate(63.623047 0)"/>
       <use xlink:href="#DejaVuSans-35" transform="translate(95.410156 0)"/>
      </g>
     </g>
    </g>
    <g id="ytick_7">
     <g id="line2d_42">
      <path d="M 57.6 192.46795 
L 414.72 192.46795 
" clip-path="url(#p7735b0b13b)" style="fill: none; stroke: #b0b0b0; stroke-width: 0.8; stroke-linecap: square"/>
     </g>
     <g id="line2d_43">
      <g>
       <use xlink:href="#m00bfe34f2c" x="57.6" y="192.46795" style="stroke: #000000; stroke-width: 0.8"/>
      </g>
     </g>
     <g id="text_16">
      <!-- 2.0 -->
      <g transform="translate(34.696875 196.267169) scale(0.1 -0.1)">
       <use xlink:href="#DejaVuSans-32"/>
       <use xlink:href="#DejaVuSans-2e" transform="translate(63.623047 0)"/>
       <use xlink:href="#DejaVuSans-30" transform="translate(95.410156 0)"/>
      </g>
     </g>
    </g>
    <g id="ytick_8">
     <g id="line2d_44">
      <path d="M 57.6 166.494956 
L 414.72 166.494956 
" clip-path="url(#p7735b0b13b)" style="fill: none; stroke: #b0b0b0; stroke-width: 0.8; stroke-linecap: square"/>
     </g>
     <g id="line2d_45">
      <g>
       <use xlink:href="#m00bfe34f2c" x="57.6" y="166.494956" style="stroke: #000000; stroke-width: 0.8"/>
      </g>
     </g>
     <g id="text_17">
      <!-- 2.5 -->
      <g transform="translate(34.696875 170.294175) scale(0.1 -0.1)">
       <use xlink:href="#DejaVuSans-32"/>
       <use xlink:href="#DejaVuSans-2e" transform="translate(63.623047 0)"/>
       <use xlink:href="#DejaVuSans-35" transform="translate(95.410156 0)"/>
      </g>
     </g>
    </g>
    <g id="ytick_9">
     <g id="line2d_46">
      <path d="M 57.6 140.521963 
L 414.72 140.521963 
" clip-path="url(#p7735b0b13b)" style="fill: none; stroke: #b0b0b0; stroke-width: 0.8; stroke-linecap: square"/>
     </g>
     <g id="line2d_47">
      <g>
       <use xlink:href="#m00bfe34f2c" x="57.6" y="140.521963" style="stroke: #000000; stroke-width: 0.8"/>
      </g>
     </g>
     <g id="text_18">
      <!-- 3.0 -->
      <g transform="translate(34.696875 144.321181) scale(0.1 -0.1)">
       <defs>
        <path id="DejaVuSans-33" d="M 2597 2516 
Q 3050 2419 3304 2112 
Q 3559 1806 3559 1356 
Q 3559 666 3084 287 
Q 2609 -91 1734 -91 
Q 1441 -91 1130 -33 
Q 819 25 488 141 
L 488 750 
Q 750 597 1062 519 
Q 1375 441 1716 441 
Q 2309 441 2620 675 
Q 2931 909 2931 1356 
Q 2931 1769 2642 2001 
Q 2353 2234 1838 2234 
L 1294 2234 
L 1294 2753 
L 1863 2753 
Q 2328 2753 2575 2939 
Q 2822 3125 2822 3475 
Q 2822 3834 2567 4026 
Q 2313 4219 1838 4219 
Q 1578 4219 1281 4162 
Q 984 4106 628 3988 
L 628 4550 
Q 988 4650 1302 4700 
Q 1616 4750 1894 4750 
Q 2613 4750 3031 4423 
Q 3450 4097 3450 3541 
Q 3450 3153 3228 2886 
Q 3006 2619 2597 2516 
z
" transform="scale(0.015625)"/>
       </defs>
       <use xlink:href="#DejaVuSans-33"/>
       <use xlink:href="#DejaVuSans-2e" transform="translate(63.623047 0)"/>
       <use xlink:href="#DejaVuSans-30" transform="translate(95.410156 0)"/>
      </g>
     </g>
    </g>
    <g id="text_19">
     <!-- Vout (pin Y) [V] -->
     <g transform="translate(28.617187 260.909656) rotate(-90) scale(0.1 -0.1)">
      <defs>
       <path id="DejaVuSans-75" d="M 544 1381 
L 544 3500 
L 1119 3500 
L 1119 1403 
Q 1119 906 1312 657 
Q 1506 409 1894 409 
Q 2359 409 2629 706 
Q 2900 1003 2900 1516 
L 2900 3500 
L 3475 3500 
L 3475 0 
L 2900 0 
L 2900 538 
Q 2691 219 2414 64 
Q 2138 -91 1772 -91 
Q 1169 -91 856 284 
Q 544 659 544 1381 
z
M 1991 3584 
L 1991 3584 
z
" transform="scale(0.015625)"/>
       <path id="DejaVuSans-59" d="M -13 4666 
L 666 4666 
L 1959 2747 
L 3244 4666 
L 3922 4666 
L 2272 2222 
L 2272 0 
L 1638 0 
L 1638 2222 
L -13 4666 
z
" transform="scale(0.015625)"/>
      </defs>
      <use xlink:href="#DejaVuSans-56"/>
      <use xlink:href="#DejaVuSans-6f" transform="translate(60.658203 0)"/>
      <use xlink:href="#DejaVuSans-75" transform="translate(121.839844 0)"/>
      <use xlink:href="#DejaVuSans-74" transform="translate(185.21875 0)"/>
      <use xlink:href="#DejaVuSans-20" transform="translate(224.427734 0)"/>
      <use xlink:href="#DejaVuSans-28" transform="translate(256.214844 0)"/>
      <use xlink:href="#DejaVuSans-70" transform="translate(295.228516 0)"/>
      <use xlink:href="#DejaVuSans-69" transform="translate(358.705078 0)"/>
      <use xlink:href="#DejaVuSans-6e" transform="translate(386.488281 0)"/>
      <use xlink:href="#DejaVuSans-20" transform="translate(449.867188 0)"/>
      <use xlink:href="#DejaVuSans-59" transform="translate(481.654297 0)"/>
      <use xlink:href="#DejaVuSans-29" transform="translate(542.738281 0)"/>
      <use xlink:href="#DejaVuSans-20" transform="translate(581.751953 0)"/>
      <use xlink:href="#DejaVuSans-5b" transform="translate(613.539062 0)"/>
      <use xlink:href="#DejaVuSans-56" transform="translate(652.552734 0)"/>
      <use xlink:href="#DejaVuSans-5d" transform="translate(720.960938 0)"/>
     </g>
    </g>
   </g>
   <g id="line2d_48">
    <path d="M 73.832727 296.359926 
L 73.913762 296.359926 
L 73.994797 296.359926 
L 74.156866 296.359926 
L 74.481005 296.359926 
L 75.129282 296.359926 
L 76.425837 296.359926 
L 79.018947 296.359926 
L 84.205167 296.359926 
L 92.308636 296.359926 
L 100.412104 296.359926 
L 106.246602 296.359926 
L 107.056949 296.843724 
L 108.677642 297.668763 
L 111.91903 298.898038 
L 118.401805 299.886545 
L 124.942451 294.004287 
L 130.671634 276.851994 
L 137.407439 234.961349 
L 138.660476 224.909905 
L 138.92262 222.561653 
L 139.446906 217.906089 
L 140.495479 208.885929 
L 142.592626 192.559525 
L 146.786918 167.36027 
L 152.420989 145.937455 
" clip-path="url(#p7735b0b13b)" style="fill: none; stroke: #1f77b4; stroke-width: 1.5; stroke-linecap: square"/>
   </g>
   <g id="line2d_49">
    <path d="M 73.832727 296.359926 
L 73.913762 296.359926 
L 73.994797 296.359926 
L 74.156866 296.359926 
L 74.481005 296.359926 
L 75.129282 296.359926 
L 76.425837 296.359926 
L 79.018947 296.359926 
L 84.205167 296.359926 
L 92.308636 296.359926 
L 100.412104 296.359926 
L 106.246602 296.359926 
L 107.056949 296.657174 
L 108.677642 297.199505 
L 111.91903 298.150482 
L 118.401805 299.215219 
L 124.949379 295.667645 
L 131.103372 284.453078 
L 137.558892 260.675226 
L 138.660476 255.458382 
L 138.899023 254.188436 
L 139.376116 251.652269 
L 140.330303 246.604356 
L 142.238676 236.619778 
L 146.055422 217.284319 
L 153.688914 184.023121 
L 161.792383 158.903677 
" clip-path="url(#p7735b0b13b)" style="fill: none; stroke: #ff7f0e; stroke-width: 1.5; stroke-linecap: square"/>
   </g>
   <g id="line2d_50">
    <path d="M 73.832727 296.359926 
L 73.913762 296.359926 
L 73.994797 296.359926 
L 74.156866 296.359926 
L 74.481005 296.359926 
L 75.129282 296.359926 
L 76.425837 296.359926 
L 79.018947 296.359926 
L 84.205167 296.359926 
L 92.308636 296.359926 
L 100.412104 296.359926 
L 106.246602 296.359926 
L 107.056949 296.497703 
L 108.677642 296.762924 
L 111.91903 297.290504 
L 118.401805 298.072633 
L 123.763429 297.150626 
L 129.63155 293.340335 
L 136.133348 284.153636 
L 138.660476 279.123434 
L 139.113979 278.061415 
L 140.020983 275.939156 
L 141.834992 271.706375 
L 145.46301 263.291414 
L 152.719046 246.697776 
L 160.822515 228.640117 
L 168.925983 211.358215 
L 177.029452 195.396579 
L 185.132921 181.277535 
L 193.236389 169.194674 
L 201.339858 159.152775 
" clip-path="url(#p7735b0b13b)" style="fill: none; stroke: #2ca02c; stroke-width: 1.5; stroke-linecap: square"/>
   </g>
   <g id="line2d_51">
    <path d="M 73.832727 296.359926 
L 73.913762 296.359926 
L 73.994797 296.359926 
L 74.156866 296.359926 
L 74.481005 296.359926 
L 75.129282 296.359926 
L 76.425837 296.359926 
L 79.018947 296.359926 
L 84.205167 296.359926 
L 92.308636 296.359926 
L 100.412104 296.359926 
L 106.246602 296.359926 
L 107.056949 296.432729 
L 108.677642 296.576124 
L 111.91903 296.881763 
L 118.401805 297.35717 
L 123.279799 296.982395 
L 129.088032 295.099291 
L 135.179403 290.849019 
L 138.660476 287.308917 
L 139.212989 286.629239 
L 140.318013 285.270585 
L 142.528063 282.557753 
L 146.948162 277.150693 
L 155.051631 267.307199 
L 163.155099 257.562405 
L 171.258568 247.929688 
L 179.362036 238.426713 
L 187.465505 229.079371 
L 195.568974 219.930424 
L 203.672442 211.047877 
L 211.775911 202.518778 
L 219.87938 194.426873 
L 227.982848 186.833003 
L 236.086317 179.775652 
L 244.189785 173.277056 
L 252.293254 167.345633 
L 260.396723 161.97721 
L 268.500191 157.156539 
" clip-path="url(#p7735b0b13b)" style="fill: none; stroke: #d62728; stroke-width: 1.5; stroke-linecap: square"/>
   </g>
   <g id="line2d_52">
    <path d="M 73.832727 296.359926 
L 73.913762 296.359926 
L 73.994797 296.359926 
L 74.156866 296.359926 
L 74.481005 296.359926 
L 75.129282 296.359926 
L 76.425837 296.359926 
L 79.018947 296.359926 
L 84.205167 296.359926 
L 92.308636 296.359926 
L 100.412104 296.359926 
L 106.246602 296.359926 
L 107.056949 296.397361 
L 108.677642 296.471887 
L 111.91903 296.634292 
L 118.401805 296.906429 
L 123.190936 296.74885 
L 128.894141 295.842761 
L 134.776113 293.839796 
L 138.660476 291.866717 
L 139.235094 291.508643 
L 140.38433 290.792691 
L 142.682802 289.362002 
L 147.279745 286.505563 
L 155.383214 281.486755 
L 163.486683 276.489843 
L 171.590151 271.515957 
L 179.69362 266.566332 
L 187.797088 261.642333 
L 195.900557 256.74549 
L 204.004026 251.877545 
L 212.107494 247.040512 
L 220.210963 242.236769 
L 228.314432 237.469188 
L 236.4179 232.741353 
L 244.521369 228.05791 
L 252.624837 223.425047 
L 260.728306 218.850849 
L 268.831775 214.345146 
L 276.935243 209.918853 
L 285.038712 205.583184 
L 293.142181 201.348926 
L 301.245649 197.225835 
L 309.349118 193.222318 
L 317.452586 189.345432 
L 325.556055 185.601009 
L 333.659524 181.993766 
L 341.762992 178.527371 
L 349.866461 175.204478 
L 357.96993 172.026758 
L 366.073398 168.994941 
L 374.176867 166.108857 
L 382.280335 163.367504 
L 390.383804 160.769108 
L 398.487273 158.311199 
" clip-path="url(#p7735b0b13b)" style="fill: none; stroke: #9467bd; stroke-width: 1.5; stroke-linecap: square"/>
   </g>
   <g id="line2d_53">
    <path d="M 57.6 262.075574 
L 414.72 262.075574 
" clip-path="url(#p7735b0b13b)" style="fill: none; stroke-dasharray: 5.55,2.4; stroke-dashoffset: 0; stroke: #808080; stroke-width: 1.5"/>
   </g>
   <g id="line2d_54">
    <path d="M 57.6 159.222518 
L 414.72 159.222518 
" clip-path="url(#p7735b0b13b)" style="fill: none; stroke-dasharray: 5.55,2.4; stroke-dashoffset: 0; stroke: #808080; stroke-width: 1.5"/>
   </g>
   <g id="line2d_55">
    <path d="M 106.246602 307.584 
L 106.246602 138.24 
" clip-path="url(#p7735b0b13b)" style="fill: none; stroke-dasharray: 1.5,2.475; stroke-dashoffset: 0; stroke: #ff0000; stroke-width: 1.5"/>
   </g>
   <g id="line2d_56">
    <path d="M 138.660476 307.584 
L 138.660476 138.24 
" clip-path="url(#p7735b0b13b)" style="fill: none; stroke-dasharray: 1.5,2.475; stroke-dashoffset: 0; stroke: #ff0000; stroke-width: 1.5"/>
   </g>
   <g id="patch_8">
    <path d="M 57.6 307.584 
L 57.6 138.24 
" style="fill: none; stroke: #000000; stroke-width: 0.8; stroke-linejoin: miter; stroke-linecap: square"/>
   </g>
   <g id="patch_9">
    <path d="M 414.72 307.584 
L 414.72 138.24 
" style="fill: none; stroke: #000000; stroke-width: 0.8; stroke-linejoin: miter; stroke-linecap: square"/>
   </g>
   <g id="patch_10">
    <path d="M 57.6 307.584 
L 414.72 307.584 
" style="fill: none; stroke: #000000; stroke-width: 0.8; stroke-linejoin: miter; stroke-linecap: square"/>
   </g>
   <g id="patch_11">
    <path d="M 57.6 138.24 
L 414.72 138.24 
" style="fill: none; stroke: #000000; stroke-width: 0.8; stroke-linejoin: miter; stroke-linecap: square"/>
   </g>
   <g id="legend_1">
    <g id="patch_12">
     <path d="M 289.752813 302.584 
L 407.72 302.584 
Q 409.72 302.584 409.72 300.584 
L 409.72 228.193375 
Q 409.72 226.193375 407.72 226.193375 
L 289.752813 226.193375 
Q 287.752813 226.193375 287.752813 228.193375 
L 287.752813 300.584 
Q 287.752813 302.584 289.752813 302.584 
z
" style="fill: #ffffff; opacity: 0.8; stroke: #cccccc; stroke-linejoin: miter"/>
    </g>
    <g id="line2d_57">
     <path d="M 291.752813 234.291812 
L 301.752813 234.291812 
L 311.752813 234.291812 
" style="fill: none; stroke: #1f77b4; stroke-width: 1.5; stroke-linecap: square"/>
    </g>
    <g id="text_20">
     <!-- Fanout=0.005 pF -->
     <g transform="translate(319.752813 237.791812) scale(0.1 -0.1)">
      <defs>
       <path id="DejaVuSans-46" d="M 628 4666 
L 3309 4666 
L 3309 4134 
L 1259 4134 
L 1259 2759 
L 3109 2759 
L 3109 2228 
L 1259 2228 
L 1259 0 
L 628 0 
L 628 4666 
z
" transform="scale(0.015625)"/>
       <path id="DejaVuSans-3d" d="M 678 2906 
L 4684 2906 
L 4684 2381 
L 678 2381 
L 678 2906 
z
M 678 1631 
L 4684 1631 
L 4684 1100 
L 678 1100 
L 678 1631 
z
" transform="scale(0.015625)"/>
      </defs>
      <use xlink:href="#DejaVuSans-46"/>
      <use xlink:href="#DejaVuSans-61" transform="translate(48.394531 0)"/>
      <use xlink:href="#DejaVuSans-6e" transform="translate(109.673828 0)"/>
      <use xlink:href="#DejaVuSans-6f" transform="translate(173.052734 0)"/>
      <use xlink:href="#DejaVuSans-75" transform="translate(234.234375 0)"/>
      <use xlink:href="#DejaVuSans-74" transform="translate(297.613281 0)"/>
      <use xlink:href="#DejaVuSans-3d" transform="translate(336.822266 0)"/>
      <use xlink:href="#DejaVuSans-30" transform="translate(420.611328 0)"/>
      <use xlink:href="#DejaVuSans-2e" transform="translate(484.234375 0)"/>
      <use xlink:href="#DejaVuSans-30" transform="translate(516.021484 0)"/>
      <use xlink:href="#DejaVuSans-30" transform="translate(579.644531 0)"/>
      <use xlink:href="#DejaVuSans-35" transform="translate(643.267578 0)"/>
      <use xlink:href="#DejaVuSans-20" transform="translate(706.890625 0)"/>
      <use xlink:href="#DejaVuSans-70" transform="translate(738.677734 0)"/>
      <use xlink:href="#DejaVuSans-46" transform="translate(802.154297 0)"/>
     </g>
    </g>
    <g id="line2d_58">
     <path d="M 291.752813 248.969937 
L 301.752813 248.969937 
L 311.752813 248.969937 
" style="fill: none; stroke: #ff7f0e; stroke-width: 1.5; stroke-linecap: square"/>
    </g>
    <g id="text_21">
     <!-- Fanout=0.01 pF -->
     <g transform="translate(319.752813 252.469937) scale(0.1 -0.1)">
      <use xlink:href="#DejaVuSans-46"/>
      <use xlink:href="#DejaVuSans-61" transform="translate(48.394531 0)"/>
      <use xlink:href="#DejaVuSans-6e" transform="translate(109.673828 0)"/>
      <use xlink:href="#DejaVuSans-6f" transform="translate(173.052734 0)"/>
      <use xlink:href="#DejaVuSans-75" transform="translate(234.234375 0)"/>
      <use xlink:href="#DejaVuSans-74" transform="translate(297.613281 0)"/>
      <use xlink:href="#DejaVuSans-3d" transform="translate(336.822266 0)"/>
      <use xlink:href="#DejaVuSans-30" transform="translate(420.611328 0)"/>
      <use xlink:href="#DejaVuSans-2e" transform="translate(484.234375 0)"/>
      <use xlink:href="#DejaVuSans-30" transform="translate(516.021484 0)"/>
      <use xlink:href="#DejaVuSans-31" transform="translate(579.644531 0)"/>
      <use xlink:href="#DejaVuSans-20" transform="translate(643.267578 0)"/>
      <use xlink:href="#DejaVuSans-70" transform="translate(675.054688 0)"/>
      <use xlink:href="#DejaVuSans-46" transform="translate(738.53125 0)"/>
     </g>
    </g>
    <g id="line2d_59">
     <path d="M 291.752813 263.648062 
L 301.752813 263.648062 
L 311.752813 263.648062 
" style="fill: none; stroke: #2ca02c; stroke-width: 1.5; stroke-linecap: square"/>
    </g>
    <g id="text_22">
     <!-- Fanout=0.025 pF -->
     <g transform="translate(319.752813 267.148062) scale(0.1 -0.1)">
      <use xlink:href="#DejaVuSans-46"/>
      <use xlink:href="#DejaVuSans-61" transform="translate(48.394531 0)"/>
      <use xlink:href="#DejaVuSans-6e" transform="translate(109.673828 0)"/>
      <use xlink:href="#DejaVuSans-6f" transform="translate(173.052734 0)"/>
      <use xlink:href="#DejaVuSans-75" transform="translate(234.234375 0)"/>
      <use xlink:href="#DejaVuSans-74" transform="translate(297.613281 0)"/>
      <use xlink:href="#DejaVuSans-3d" transform="translate(336.822266 0)"/>
      <use xlink:href="#DejaVuSans-30" transform="translate(420.611328 0)"/>
      <use xlink:href="#DejaVuSans-2e" transform="translate(484.234375 0)"/>
      <use xlink:href="#DejaVuSans-30" transform="translate(516.021484 0)"/>
      <use xlink:href="#DejaVuSans-32" transform="translate(579.644531 0)"/>
      <use xlink:href="#DejaVuSans-35" transform="translate(643.267578 0)"/>
      <use xlink:href="#DejaVuSans-20" transform="translate(706.890625 0)"/>
      <use xlink:href="#DejaVuSans-70" transform="translate(738.677734 0)"/>
      <use xlink:href="#DejaVuSans-46" transform="translate(802.154297 0)"/>
     </g>
    </g>
    <g id="line2d_60">
     <path d="M 291.752813 278.326187 
L 301.752813 278.326187 
L 311.752813 278.326187 
" style="fill: none; stroke: #d62728; stroke-width: 1.5; stroke-linecap: square"/>
    </g>
    <g id="text_23">
     <!-- Fanout=0.05 pF -->
     <g transform="translate(319.752813 281.826187) scale(0.1 -0.1)">
      <use xlink:href="#DejaVuSans-46"/>
      <use xlink:href="#DejaVuSans-61" transform="translate(48.394531 0)"/>
      <use xlink:href="#DejaVuSans-6e" transform="translate(109.673828 0)"/>
      <use xlink:href="#DejaVuSans-6f" transform="translate(173.052734 0)"/>
      <use xlink:href="#DejaVuSans-75" transform="translate(234.234375 0)"/>
      <use xlink:href="#DejaVuSans-74" transform="translate(297.613281 0)"/>
      <use xlink:href="#DejaVuSans-3d" transform="translate(336.822266 0)"/>
      <use xlink:href="#DejaVuSans-30" transform="translate(420.611328 0)"/>
      <use xlink:href="#DejaVuSans-2e" transform="translate(484.234375 0)"/>
      <use xlink:href="#DejaVuSans-30" transform="translate(516.021484 0)"/>
      <use xlink:href="#DejaVuSans-35" transform="translate(579.644531 0)"/>
      <use xlink:href="#DejaVuSans-20" transform="translate(643.267578 0)"/>
      <use xlink:href="#DejaVuSans-70" transform="translate(675.054688 0)"/>
      <use xlink:href="#DejaVuSans-46" transform="translate(738.53125 0)"/>
     </g>
    </g>
    <g id="line2d_61">
     <path d="M 291.752813 293.004312 
L 301.752813 293.004312 
L 311.752813 293.004312 
" style="fill: none; stroke: #9467bd; stroke-width: 1.5; stroke-linecap: square"/>
    </g>
    <g id="text_24">
     <!-- Fanout=0.1 pF -->
     <g transform="translate(319.752813 296.504312) scale(0.1 -0.1)">
      <use xlink:href="#DejaVuSans-46"/>
      <use xlink:href="#DejaVuSans-61" transform="translate(48.394531 0)"/>
      <use xlink:href="#DejaVuSans-6e" transform="translate(109.673828 0)"/>
      <use xlink:href="#DejaVuSans-6f" transform="translate(173.052734 0)"/>
      <use xlink:href="#DejaVuSans-75" transform="translate(234.234375 0)"/>
      <use xlink:href="#DejaVuSans-74" transform="translate(297.613281 0)"/>
      <use xlink:href="#DejaVuSans-3d" transform="translate(336.822266 0)"/>
      <use xlink:href="#DejaVuSans-30" transform="translate(420.611328 0)"/>
      <use xlink:href="#DejaVuSans-2e" transform="translate(484.234375 0)"/>
      <use xlink:href="#DejaVuSans-31" transform="translate(516.021484 0)"/>
      <use xlink:href="#DejaVuSans-20" transform="translate(579.644531 0)"/>
      <use xlink:href="#DejaVuSans-70" transform="translate(611.431641 0)"/>
      <use xlink:href="#DejaVuSans-46" transform="translate(674.908203 0)"/>
     </g>
    </g>
   </g>
  </g>
 </g>
 <defs>
  <clipPath id="p887e2a7ab8">
   <rect x="57.6" y="41.472" width="357.12" height="72.576"/>
  </clipPath>
  <clipPath id="p7735b0b13b">
   <rect x="57.6" y="138.24" width="357.12" height="169.344"/>
  </clipPath>
 </defs>
</svg>
