<?xml version="1.0" encoding="utf-8" standalone="no"?>
<!DOCTYPE svg PUBLIC "-//W3C//DTD SVG 1.1//EN"
  "http://www.w3.org/Graphics/SVG/1.1/DTD/svg11.dtd">
<svg xmlns:xlink="http://www.w3.org/1999/xlink" width="460.8pt" height="345.6pt" viewBox="0 0 460.8 345.6" xmlns="http://www.w3.org/2000/svg" version="1.1">
 <metadata>
  <rdf:RDF xmlns:dc="http://purl.org/dc/elements/1.1/" xmlns:cc="http://creativecommons.org/ns#" xmlns:rdf="http://www.w3.org/1999/02/22-rdf-syntax-ns#">
   <cc:Work>
    <dc:type rdf:resource="http://purl.org/dc/dcmitype/StillImage"/>
    <dc:date>2025-01-30T09:04:37.539867</dc:date>
    <dc:format>image/svg+xml</dc:format>
    <dc:creator>
     <cc:Agent>
      <dc:title>Matplotlib v3.10.0, https://matplotlib.org/</dc:title>
     </cc:Agent>
    </dc:creator>
   </cc:Work>
  </rdf:RDF>
 </metadata>
 <defs>
  <style type="text/css">*{stroke-linejoin: round; stroke-linecap: butt}</style>
 </defs>
 <g id="figure_1">
  <g id="patch_1">
   <path d="M 0 345.6 
L 460.8 345.6 
L 460.8 0 
L 0 0 
z
" style="fill: #ffffff"/>
  </g>
  <g id="axes_1">
   <g id="patch_2">
    <path d="M 47.72 104.95281 
L 450 104.95281 
L 450 26.88 
L 47.72 26.88 
z
" style="fill: #ffffff"/>
   </g>
   <g id="matplotlib.axis_1">
    <g id="xtick_1">
     <g id="line2d_1">
      <path d="M 66.005455 104.95281 
L 66.005455 26.88 
" clip-path="url(#p233aa9e88f)" style="fill: none; stroke: #b0b0b0; stroke-width: 0.8; stroke-linecap: square"/>
     </g>
     <g id="line2d_2">
      <defs>
       <path id="mb28bf4bf46" d="M 0 0 
L 0 3.5 
" style="stroke: #000000; stroke-width: 0.8"/>
      </defs>
      <g>
       <use xlink:href="#mb28bf4bf46" x="66.005455" y="104.95281" style="stroke: #000000; stroke-width: 0.8"/>
      </g>
     </g>
    </g>
    <g id="xtick_2">
     <g id="line2d_3">
      <path d="M 144.875828 104.95281 
L 144.875828 26.88 
" clip-path="url(#p233aa9e88f)" style="fill: none; stroke: #b0b0b0; stroke-width: 0.8; stroke-linecap: square"/>
     </g>
     <g id="line2d_4">
      <g>
       <use xlink:href="#mb28bf4bf46" x="144.875828" y="104.95281" style="stroke: #000000; stroke-width: 0.8"/>
      </g>
     </g>
    </g>
    <g id="xtick_3">
     <g id="line2d_5">
      <path d="M 223.746201 104.95281 
L 223.746201 26.88 
" clip-path="url(#p233aa9e88f)" style="fill: none; stroke: #b0b0b0; stroke-width: 0.8; stroke-linecap: square"/>
     </g>
     <g id="line2d_6">
      <g>
       <use xlink:href="#mb28bf4bf46" x="223.746201" y="104.95281" style="stroke: #000000; stroke-width: 0.8"/>
      </g>
     </g>
    </g>
    <g id="xtick_4">
     <g id="line2d_7">
      <path d="M 302.616574 104.95281 
L 302.616574 26.88 
" clip-path="url(#p233aa9e88f)" style="fill: none; stroke: #b0b0b0; stroke-width: 0.8; stroke-linecap: square"/>
     </g>
     <g id="line2d_8">
      <g>
       <use xlink:href="#mb28bf4bf46" x="302.616574" y="104.95281" style="stroke: #000000; stroke-width: 0.8"/>
      </g>
     </g>
    </g>
    <g id="xtick_5">
     <g id="line2d_9">
      <path d="M 381.486948 104.95281 
L 381.486948 26.88 
" clip-path="url(#p233aa9e88f)" style="fill: none; stroke: #b0b0b0; stroke-width: 0.8; stroke-linecap: square"/>
     </g>
     <g id="line2d_10">
      <g>
       <use xlink:href="#mb28bf4bf46" x="381.486948" y="104.95281" style="stroke: #000000; stroke-width: 0.8"/>
      </g>
     </g>
    </g>
   </g>
   <g id="matplotlib.axis_2">
    <g id="ytick_1">
     <g id="line2d_11">
      <path d="M 47.72 101.404046 
L 450 101.404046 
" clip-path="url(#p233aa9e88f)" style="fill: none; stroke: #b0b0b0; stroke-width: 0.8; stroke-linecap: square"/>
     </g>
     <g id="line2d_12">
      <defs>
       <path id="m2425857e48" d="M 0 0 
L -3.5 0 
" style="stroke: #000000; stroke-width: 0.8"/>
      </defs>
      <g>
       <use xlink:href="#m2425857e48" x="47.72" y="101.404046" style="stroke: #000000; stroke-width: 0.8"/>
      </g>
     </g>
     <g id="text_1">
      <!-- 0 -->
      <g transform="translate(34.3575 105.203265) scale(0.1 -0.1)">
       <defs>
        <path id="DejaVuSans-30" d="M 2034 4250 
Q 1547 4250 1301 3770 
Q 1056 3291 1056 2328 
Q 1056 1369 1301 889 
Q 1547 409 2034 409 
Q 2525 409 2770 889 
Q 3016 1369 3016 2328 
Q 3016 3291 2770 3770 
Q 2525 4250 2034 4250 
z
M 2034 4750 
Q 2819 4750 3233 4129 
Q 3647 3509 3647 2328 
Q 3647 1150 3233 529 
Q 2819 -91 2034 -91 
Q 1250 -91 836 529 
Q 422 1150 422 2328 
Q 422 3509 836 4129 
Q 1250 4750 2034 4750 
z
" transform="scale(0.015625)"/>
       </defs>
       <use xlink:href="#DejaVuSans-30"/>
      </g>
     </g>
    </g>
    <g id="ytick_2">
     <g id="line2d_13">
      <path d="M 47.72 58.388724 
L 450 58.388724 
" clip-path="url(#p233aa9e88f)" style="fill: none; stroke: #b0b0b0; stroke-width: 0.8; stroke-linecap: square"/>
     </g>
     <g id="line2d_14">
      <g>
       <use xlink:href="#m2425857e48" x="47.72" y="58.388724" style="stroke: #000000; stroke-width: 0.8"/>
      </g>
     </g>
     <g id="text_2">
      <!-- 2 -->
      <g transform="translate(34.3575 62.187942) scale(0.1 -0.1)">
       <defs>
        <path id="DejaVuSans-32" d="M 1228 531 
L 3431 531 
L 3431 0 
L 469 0 
L 469 531 
Q 828 903 1448 1529 
Q 2069 2156 2228 2338 
Q 2531 2678 2651 2914 
Q 2772 3150 2772 3378 
Q 2772 3750 2511 3984 
Q 2250 4219 1831 4219 
Q 1534 4219 1204 4116 
Q 875 4013 500 3803 
L 500 4441 
Q 881 4594 1212 4672 
Q 1544 4750 1819 4750 
Q 2544 4750 2975 4387 
Q 3406 4025 3406 3419 
Q 3406 3131 3298 2873 
Q 3191 2616 2906 2266 
Q 2828 2175 2409 1742 
Q 1991 1309 1228 531 
z
" transform="scale(0.015625)"/>
       </defs>
       <use xlink:href="#DejaVuSans-32"/>
      </g>
     </g>
    </g>
    <g id="text_3">
     <!-- Vin (pin A) [V] -->
     <g transform="translate(28.277812 100.924999) rotate(-90) scale(0.1 -0.1)">
      <defs>
       <path id="DejaVuSans-56" d="M 1831 0 
L 50 4666 
L 709 4666 
L 2188 738 
L 3669 4666 
L 4325 4666 
L 2547 0 
L 1831 0 
z
" transform="scale(0.015625)"/>
       <path id="DejaVuSans-69" d="M 603 3500 
L 1178 3500 
L 1178 0 
L 603 0 
L 603 3500 
z
M 603 4863 
L 1178 4863 
L 1178 4134 
L 603 4134 
L 603 4863 
z
" transform="scale(0.015625)"/>
       <path id="DejaVuSans-6e" d="M 3513 2113 
L 3513 0 
L 2938 0 
L 2938 2094 
Q 2938 2591 2744 2837 
Q 2550 3084 2163 3084 
Q 1697 3084 1428 2787 
Q 1159 2491 1159 1978 
L 1159 0 
L 581 0 
L 581 3500 
L 1159 3500 
L 1159 2956 
Q 1366 3272 1645 3428 
Q 1925 3584 2291 3584 
Q 2894 3584 3203 3211 
Q 3513 2838 3513 2113 
z
" transform="scale(0.015625)"/>
       <path id="DejaVuSans-20" transform="scale(0.015625)"/>
       <path id="DejaVuSans-28" d="M 1984 4856 
Q 1566 4138 1362 3434 
Q 1159 2731 1159 2009 
Q 1159 1288 1364 580 
Q 1569 -128 1984 -844 
L 1484 -844 
Q 1016 -109 783 600 
Q 550 1309 550 2009 
Q 550 2706 781 3412 
Q 1013 4119 1484 4856 
L 1984 4856 
z
" transform="scale(0.015625)"/>
       <path id="DejaVuSans-70" d="M 1159 525 
L 1159 -1331 
L 581 -1331 
L 581 3500 
L 1159 3500 
L 1159 2969 
Q 1341 3281 1617 3432 
Q 1894 3584 2278 3584 
Q 2916 3584 3314 3078 
Q 3713 2572 3713 1747 
Q 3713 922 3314 415 
Q 2916 -91 2278 -91 
Q 1894 -91 1617 61 
Q 1341 213 1159 525 
z
M 3116 1747 
Q 3116 2381 2855 2742 
Q 2594 3103 2138 3103 
Q 1681 3103 1420 2742 
Q 1159 2381 1159 1747 
Q 1159 1113 1420 752 
Q 1681 391 2138 391 
Q 2594 391 2855 752 
Q 3116 1113 3116 1747 
z
" transform="scale(0.015625)"/>
       <path id="DejaVuSans-41" d="M 2188 4044 
L 1331 1722 
L 3047 1722 
L 2188 4044 
z
M 1831 4666 
L 2547 4666 
L 4325 0 
L 3669 0 
L 3244 1197 
L 1141 1197 
L 716 0 
L 50 0 
L 1831 4666 
z
" transform="scale(0.015625)"/>
       <path id="DejaVuSans-29" d="M 513 4856 
L 1013 4856 
Q 1481 4119 1714 3412 
Q 1947 2706 1947 2009 
Q 1947 1309 1714 600 
Q 1481 -109 1013 -844 
L 513 -844 
Q 928 -128 1133 580 
Q 1338 1288 1338 2009 
Q 1338 2731 1133 3434 
Q 928 4138 513 4856 
z
" transform="scale(0.015625)"/>
       <path id="DejaVuSans-5b" d="M 550 4863 
L 1875 4863 
L 1875 4416 
L 1125 4416 
L 1125 -397 
L 1875 -397 
L 1875 -844 
L 550 -844 
L 550 4863 
z
" transform="scale(0.015625)"/>
       <path id="DejaVuSans-5d" d="M 1947 4863 
L 1947 -844 
L 622 -844 
L 622 -397 
L 1369 -397 
L 1369 4416 
L 622 4416 
L 622 4863 
L 1947 4863 
z
" transform="scale(0.015625)"/>
      </defs>
      <use xlink:href="#DejaVuSans-56"/>
      <use xlink:href="#DejaVuSans-69" transform="translate(66.158203 0)"/>
      <use xlink:href="#DejaVuSans-6e" transform="translate(93.941406 0)"/>
      <use xlink:href="#DejaVuSans-20" transform="translate(157.320312 0)"/>
      <use xlink:href="#DejaVuSans-28" transform="translate(189.107422 0)"/>
      <use xlink:href="#DejaVuSans-70" transform="translate(228.121094 0)"/>
      <use xlink:href="#DejaVuSans-69" transform="translate(291.597656 0)"/>
      <use xlink:href="#DejaVuSans-6e" transform="translate(319.380859 0)"/>
      <use xlink:href="#DejaVuSans-20" transform="translate(382.759766 0)"/>
      <use xlink:href="#DejaVuSans-41" transform="translate(414.546875 0)"/>
      <use xlink:href="#DejaVuSans-29" transform="translate(482.955078 0)"/>
      <use xlink:href="#DejaVuSans-20" transform="translate(521.96875 0)"/>
      <use xlink:href="#DejaVuSans-5b" transform="translate(553.755859 0)"/>
      <use xlink:href="#DejaVuSans-56" transform="translate(592.769531 0)"/>
      <use xlink:href="#DejaVuSans-5d" transform="translate(661.177734 0)"/>
     </g>
    </g>
   </g>
   <g id="line2d_15">
    <path d="M 66.005455 30.428764 
L 66.104043 30.428764 
L 66.20263 30.428764 
L 66.399806 30.428764 
L 66.794158 30.428764 
L 67.582862 30.428764 
L 69.160269 30.428764 
L 72.315084 30.428764 
L 78.624714 30.428764 
L 88.483511 30.428764 
L 98.342308 30.428764 
L 105.440641 30.428764 
L 106.426521 32.203146 
L 108.39828 35.75191 
L 112.341799 42.849438 
L 120.228836 57.044495 
L 128.199018 71.389194 
L 136.074416 85.563302 
L 144.415133 100.574889 
L 144.875828 101.404046 
L 145.040544 101.404046 
L 145.369978 101.404046 
L 146.028844 101.404046 
L 147.346577 101.404046 
L 149.982043 101.404046 
L 155.252974 101.404046 
L 161.646315 101.404046 
L 168.610279 101.404046 
L 175.385832 101.404046 
L 185.244629 101.404046 
L 195.103426 101.404046 
L 204.962222 101.404046 
L 214.821019 101.404046 
L 224.679816 101.404046 
L 234.538612 101.404046 
L 244.397409 101.404046 
L 254.256206 101.404046 
L 264.115002 101.404046 
L 273.973799 101.404046 
L 283.832596 101.404046 
L 293.691392 101.404046 
L 303.550189 101.404046 
L 313.408986 101.404046 
L 323.267782 101.404046 
L 333.126579 101.404046 
L 342.985376 101.404046 
L 352.844172 101.404046 
L 362.702969 101.404046 
L 372.561765 101.404046 
L 382.420562 101.404046 
L 392.279359 101.404046 
L 402.138155 101.404046 
L 411.996952 101.404046 
L 421.855749 101.404046 
L 431.714545 101.404046 
" clip-path="url(#p233aa9e88f)" style="fill: none; stroke: #1f77b4; stroke-width: 1.5; stroke-linecap: square"/>
   </g>
   <g id="line2d_16">
    <path d="M 47.72 87.20899 
L 450 87.20899 
" clip-path="url(#p233aa9e88f)" style="fill: none; stroke-dasharray: 5.55,2.4; stroke-dashoffset: 0; stroke: #808080; stroke-width: 1.5"/>
   </g>
   <g id="line2d_17">
    <path d="M 47.72 44.62382 
L 450 44.62382 
" clip-path="url(#p233aa9e88f)" style="fill: none; stroke-dasharray: 5.55,2.4; stroke-dashoffset: 0; stroke: #808080; stroke-width: 1.5"/>
   </g>
   <g id="line2d_18">
    <path d="M 105.440641 104.95281 
L 105.440641 26.88 
" clip-path="url(#p233aa9e88f)" style="fill: none; stroke-dasharray: 1.5,2.475; stroke-dashoffset: 0; stroke: #ff0000; stroke-width: 1.5"/>
   </g>
   <g id="line2d_19">
    <path d="M 144.875828 104.95281 
L 144.875828 26.88 
" clip-path="url(#p233aa9e88f)" style="fill: none; stroke-dasharray: 1.5,2.475; stroke-dashoffset: 0; stroke: #ff0000; stroke-width: 1.5"/>
   </g>
   <g id="patch_3">
    <path d="M 47.72 104.95281 
L 47.72 26.88 
" style="fill: none; stroke: #000000; stroke-width: 0.8; stroke-linejoin: miter; stroke-linecap: square"/>
   </g>
   <g id="patch_4">
    <path d="M 450 104.95281 
L 450 26.88 
" style="fill: none; stroke: #000000; stroke-width: 0.8; stroke-linejoin: miter; stroke-linecap: square"/>
   </g>
   <g id="patch_5">
    <path d="M 47.72 104.95281 
L 450 104.95281 
" style="fill: none; stroke: #000000; stroke-width: 0.8; stroke-linejoin: miter; stroke-linecap: square"/>
   </g>
   <g id="patch_6">
    <path d="M 47.72 26.88 
L 450 26.88 
" style="fill: none; stroke: #000000; stroke-width: 0.8; stroke-linejoin: miter; stroke-linecap: square"/>
   </g>
   <g id="text_4">
    <!-- I/O Voltages vs. Time -->
    <g transform="translate(185.727812 20.88) scale(0.12 -0.12)">
     <defs>
      <path id="DejaVuSans-49" d="M 628 4666 
L 1259 4666 
L 1259 0 
L 628 0 
L 628 4666 
z
" transform="scale(0.015625)"/>
      <path id="DejaVuSans-2f" d="M 1625 4666 
L 2156 4666 
L 531 -594 
L 0 -594 
L 1625 4666 
z
" transform="scale(0.015625)"/>
      <path id="DejaVuSans-4f" d="M 2522 4238 
Q 1834 4238 1429 3725 
Q 1025 3213 1025 2328 
Q 1025 1447 1429 934 
Q 1834 422 2522 422 
Q 3209 422 3611 934 
Q 4013 1447 4013 2328 
Q 4013 3213 3611 3725 
Q 3209 4238 2522 4238 
z
M 2522 4750 
Q 3503 4750 4090 4092 
Q 4678 3434 4678 2328 
Q 4678 1225 4090 567 
Q 3503 -91 2522 -91 
Q 1538 -91 948 565 
Q 359 1222 359 2328 
Q 359 3434 948 4092 
Q 1538 4750 2522 4750 
z
" transform="scale(0.015625)"/>
      <path id="DejaVuSans-6f" d="M 1959 3097 
Q 1497 3097 1228 2736 
Q 959 2375 959 1747 
Q 959 1119 1226 758 
Q 1494 397 1959 397 
Q 2419 397 2687 759 
Q 2956 1122 2956 1747 
Q 2956 2369 2687 2733 
Q 2419 3097 1959 3097 
z
M 1959 3584 
Q 2709 3584 3137 3096 
Q 3566 2609 3566 1747 
Q 3566 888 3137 398 
Q 2709 -91 1959 -91 
Q 1206 -91 779 398 
Q 353 888 353 1747 
Q 353 2609 779 3096 
Q 1206 3584 1959 3584 
z
" transform="scale(0.015625)"/>
      <path id="DejaVuSans-6c" d="M 603 4863 
L 1178 4863 
L 1178 0 
L 603 0 
L 603 4863 
z
" transform="scale(0.015625)"/>
      <path id="DejaVuSans-74" d="M 1172 4494 
L 1172 3500 
L 2356 3500 
L 2356 3053 
L 1172 3053 
L 1172 1153 
Q 1172 725 1289 603 
Q 1406 481 1766 481 
L 2356 481 
L 2356 0 
L 1766 0 
Q 1100 0 847 248 
Q 594 497 594 1153 
L 594 3053 
L 172 3053 
L 172 3500 
L 594 3500 
L 594 4494 
L 1172 4494 
z
" transform="scale(0.015625)"/>
      <path id="DejaVuSans-61" d="M 2194 1759 
Q 1497 1759 1228 1600 
Q 959 1441 959 1056 
Q 959 750 1161 570 
Q 1363 391 1709 391 
Q 2188 391 2477 730 
Q 2766 1069 2766 1631 
L 2766 1759 
L 2194 1759 
z
M 3341 1997 
L 3341 0 
L 2766 0 
L 2766 531 
Q 2569 213 2275 61 
Q 1981 -91 1556 -91 
Q 1019 -91 701 211 
Q 384 513 384 1019 
Q 384 1609 779 1909 
Q 1175 2209 1959 2209 
L 2766 2209 
L 2766 2266 
Q 2766 2663 2505 2880 
Q 2244 3097 1772 3097 
Q 1472 3097 1187 3025 
Q 903 2953 641 2809 
L 641 3341 
Q 956 3463 1253 3523 
Q 1550 3584 1831 3584 
Q 2591 3584 2966 3190 
Q 3341 2797 3341 1997 
z
" transform="scale(0.015625)"/>
      <path id="DejaVuSans-67" d="M 2906 1791 
Q 2906 2416 2648 2759 
Q 2391 3103 1925 3103 
Q 1463 3103 1205 2759 
Q 947 2416 947 1791 
Q 947 1169 1205 825 
Q 1463 481 1925 481 
Q 2391 481 2648 825 
Q 2906 1169 2906 1791 
z
M 3481 434 
Q 3481 -459 3084 -895 
Q 2688 -1331 1869 -1331 
Q 1566 -1331 1297 -1286 
Q 1028 -1241 775 -1147 
L 775 -588 
Q 1028 -725 1275 -790 
Q 1522 -856 1778 -856 
Q 2344 -856 2625 -561 
Q 2906 -266 2906 331 
L 2906 616 
Q 2728 306 2450 153 
Q 2172 0 1784 0 
Q 1141 0 747 490 
Q 353 981 353 1791 
Q 353 2603 747 3093 
Q 1141 3584 1784 3584 
Q 2172 3584 2450 3431 
Q 2728 3278 2906 2969 
L 2906 3500 
L 3481 3500 
L 3481 434 
z
" transform="scale(0.015625)"/>
      <path id="DejaVuSans-65" d="M 3597 1894 
L 3597 1613 
L 953 1613 
Q 991 1019 1311 708 
Q 1631 397 2203 397 
Q 2534 397 2845 478 
Q 3156 559 3463 722 
L 3463 178 
Q 3153 47 2828 -22 
Q 2503 -91 2169 -91 
Q 1331 -91 842 396 
Q 353 884 353 1716 
Q 353 2575 817 3079 
Q 1281 3584 2069 3584 
Q 2775 3584 3186 3129 
Q 3597 2675 3597 1894 
z
M 3022 2063 
Q 3016 2534 2758 2815 
Q 2500 3097 2075 3097 
Q 1594 3097 1305 2825 
Q 1016 2553 972 2059 
L 3022 2063 
z
" transform="scale(0.015625)"/>
      <path id="DejaVuSans-73" d="M 2834 3397 
L 2834 2853 
Q 2591 2978 2328 3040 
Q 2066 3103 1784 3103 
Q 1356 3103 1142 2972 
Q 928 2841 928 2578 
Q 928 2378 1081 2264 
Q 1234 2150 1697 2047 
L 1894 2003 
Q 2506 1872 2764 1633 
Q 3022 1394 3022 966 
Q 3022 478 2636 193 
Q 2250 -91 1575 -91 
Q 1294 -91 989 -36 
Q 684 19 347 128 
L 347 722 
Q 666 556 975 473 
Q 1284 391 1588 391 
Q 1994 391 2212 530 
Q 2431 669 2431 922 
Q 2431 1156 2273 1281 
Q 2116 1406 1581 1522 
L 1381 1569 
Q 847 1681 609 1914 
Q 372 2147 372 2553 
Q 372 3047 722 3315 
Q 1072 3584 1716 3584 
Q 2034 3584 2315 3537 
Q 2597 3491 2834 3397 
z
" transform="scale(0.015625)"/>
      <path id="DejaVuSans-76" d="M 191 3500 
L 800 3500 
L 1894 563 
L 2988 3500 
L 3597 3500 
L 2284 0 
L 1503 0 
L 191 3500 
z
" transform="scale(0.015625)"/>
      <path id="DejaVuSans-2e" d="M 684 794 
L 1344 794 
L 1344 0 
L 684 0 
L 684 794 
z
" transform="scale(0.015625)"/>
      <path id="DejaVuSans-54" d="M -19 4666 
L 3928 4666 
L 3928 4134 
L 2272 4134 
L 2272 0 
L 1638 0 
L 1638 4134 
L -19 4134 
L -19 4666 
z
" transform="scale(0.015625)"/>
      <path id="DejaVuSans-6d" d="M 3328 2828 
Q 3544 3216 3844 3400 
Q 4144 3584 4550 3584 
Q 5097 3584 5394 3201 
Q 5691 2819 5691 2113 
L 5691 0 
L 5113 0 
L 5113 2094 
Q 5113 2597 4934 2840 
Q 4756 3084 4391 3084 
Q 3944 3084 3684 2787 
Q 3425 2491 3425 1978 
L 3425 0 
L 2847 0 
L 2847 2094 
Q 2847 2600 2669 2842 
Q 2491 3084 2119 3084 
Q 1678 3084 1418 2786 
Q 1159 2488 1159 1978 
L 1159 0 
L 581 0 
L 581 3500 
L 1159 3500 
L 1159 2956 
Q 1356 3278 1631 3431 
Q 1906 3584 2284 3584 
Q 2666 3584 2933 3390 
Q 3200 3197 3328 2828 
z
" transform="scale(0.015625)"/>
     </defs>
     <use xlink:href="#DejaVuSans-49"/>
     <use xlink:href="#DejaVuSans-2f" transform="translate(29.492188 0)"/>
     <use xlink:href="#DejaVuSans-4f" transform="translate(63.183594 0)"/>
     <use xlink:href="#DejaVuSans-20" transform="translate(141.894531 0)"/>
     <use xlink:href="#DejaVuSans-56" transform="translate(173.681641 0)"/>
     <use xlink:href="#DejaVuSans-6f" transform="translate(234.339844 0)"/>
     <use xlink:href="#DejaVuSans-6c" transform="translate(295.521484 0)"/>
     <use xlink:href="#DejaVuSans-74" transform="translate(323.304688 0)"/>
     <use xlink:href="#DejaVuSans-61" transform="translate(362.513672 0)"/>
     <use xlink:href="#DejaVuSans-67" transform="translate(423.792969 0)"/>
     <use xlink:href="#DejaVuSans-65" transform="translate(487.269531 0)"/>
     <use xlink:href="#DejaVuSans-73" transform="translate(548.792969 0)"/>
     <use xlink:href="#DejaVuSans-20" transform="translate(600.892578 0)"/>
     <use xlink:href="#DejaVuSans-76" transform="translate(632.679688 0)"/>
     <use xlink:href="#DejaVuSans-73" transform="translate(691.859375 0)"/>
     <use xlink:href="#DejaVuSans-2e" transform="translate(743.958984 0)"/>
     <use xlink:href="#DejaVuSans-20" transform="translate(775.746094 0)"/>
     <use xlink:href="#DejaVuSans-54" transform="translate(807.533203 0)"/>
     <use xlink:href="#DejaVuSans-69" transform="translate(865.492188 0)"/>
     <use xlink:href="#DejaVuSans-6d" transform="translate(893.275391 0)"/>
     <use xlink:href="#DejaVuSans-65" transform="translate(990.6875 0)"/>
    </g>
   </g>
  </g>
  <g id="axes_2">
   <g id="patch_7">
    <path d="M 47.72 303.64 
L 450 303.64 
L 450 121.47011 
L 47.72 121.47011 
z
" style="fill: #ffffff"/>
   </g>
   <g id="matplotlib.axis_3">
    <g id="xtick_6">
     <g id="line2d_20">
      <path d="M 66.005455 303.64 
L 66.005455 121.47011 
" clip-path="url(#pc0c3e0d727)" style="fill: none; stroke: #b0b0b0; stroke-width: 0.8; stroke-linecap: square"/>
     </g>
     <g id="line2d_21">
      <g>
       <use xlink:href="#mb28bf4bf46" x="66.005455" y="303.64" style="stroke: #000000; stroke-width: 0.8"/>
      </g>
     </g>
     <g id="text_5">
      <!-- 0.0 -->
      <g transform="translate(58.053892 318.238437) scale(0.1 -0.1)">
       <use xlink:href="#DejaVuSans-30"/>
       <use xlink:href="#DejaVuSans-2e" transform="translate(63.623047 0)"/>
       <use xlink:href="#DejaVuSans-30" transform="translate(95.410156 0)"/>
      </g>
     </g>
    </g>
    <g id="xtick_7">
     <g id="line2d_22">
      <path d="M 144.875828 303.64 
L 144.875828 121.47011 
" clip-path="url(#pc0c3e0d727)" style="fill: none; stroke: #b0b0b0; stroke-width: 0.8; stroke-linecap: square"/>
     </g>
     <g id="line2d_23">
      <g>
       <use xlink:href="#mb28bf4bf46" x="144.875828" y="303.64" style="stroke: #000000; stroke-width: 0.8"/>
      </g>
     </g>
     <g id="text_6">
      <!-- 0.2 -->
      <g transform="translate(136.924265 318.238437) scale(0.1 -0.1)">
       <use xlink:href="#DejaVuSans-30"/>
       <use xlink:href="#DejaVuSans-2e" transform="translate(63.623047 0)"/>
       <use xlink:href="#DejaVuSans-32" transform="translate(95.410156 0)"/>
      </g>
     </g>
    </g>
    <g id="xtick_8">
     <g id="line2d_24">
      <path d="M 223.746201 303.64 
L 223.746201 121.47011 
" clip-path="url(#pc0c3e0d727)" style="fill: none; stroke: #b0b0b0; stroke-width: 0.8; stroke-linecap: square"/>
     </g>
     <g id="line2d_25">
      <g>
       <use xlink:href="#mb28bf4bf46" x="223.746201" y="303.64" style="stroke: #000000; stroke-width: 0.8"/>
      </g>
     </g>
     <g id="text_7">
      <!-- 0.4 -->
      <g transform="translate(215.794639 318.238437) scale(0.1 -0.1)">
       <defs>
        <path id="DejaVuSans-34" d="M 2419 4116 
L 825 1625 
L 2419 1625 
L 2419 4116 
z
M 2253 4666 
L 3047 4666 
L 3047 1625 
L 3713 1625 
L 3713 1100 
L 3047 1100 
L 3047 0 
L 2419 0 
L 2419 1100 
L 313 1100 
L 313 1709 
L 2253 4666 
z
" transform="scale(0.015625)"/>
       </defs>
       <use xlink:href="#DejaVuSans-30"/>
       <use xlink:href="#DejaVuSans-2e" transform="translate(63.623047 0)"/>
       <use xlink:href="#DejaVuSans-34" transform="translate(95.410156 0)"/>
      </g>
     </g>
    </g>
    <g id="xtick_9">
     <g id="line2d_26">
      <path d="M 302.616574 303.64 
L 302.616574 121.47011 
" clip-path="url(#pc0c3e0d727)" style="fill: none; stroke: #b0b0b0; stroke-width: 0.8; stroke-linecap: square"/>
     </g>
     <g id="line2d_27">
      <g>
       <use xlink:href="#mb28bf4bf46" x="302.616574" y="303.64" style="stroke: #000000; stroke-width: 0.8"/>
      </g>
     </g>
     <g id="text_8">
      <!-- 0.6 -->
      <g transform="translate(294.665012 318.238437) scale(0.1 -0.1)">
       <defs>
        <path id="DejaVuSans-36" d="M 2113 2584 
Q 1688 2584 1439 2293 
Q 1191 2003 1191 1497 
Q 1191 994 1439 701 
Q 1688 409 2113 409 
Q 2538 409 2786 701 
Q 3034 994 3034 1497 
Q 3034 2003 2786 2293 
Q 2538 2584 2113 2584 
z
M 3366 4563 
L 3366 3988 
Q 3128 4100 2886 4159 
Q 2644 4219 2406 4219 
Q 1781 4219 1451 3797 
Q 1122 3375 1075 2522 
Q 1259 2794 1537 2939 
Q 1816 3084 2150 3084 
Q 2853 3084 3261 2657 
Q 3669 2231 3669 1497 
Q 3669 778 3244 343 
Q 2819 -91 2113 -91 
Q 1303 -91 875 529 
Q 447 1150 447 2328 
Q 447 3434 972 4092 
Q 1497 4750 2381 4750 
Q 2619 4750 2861 4703 
Q 3103 4656 3366 4563 
z
" transform="scale(0.015625)"/>
       </defs>
       <use xlink:href="#DejaVuSans-30"/>
       <use xlink:href="#DejaVuSans-2e" transform="translate(63.623047 0)"/>
       <use xlink:href="#DejaVuSans-36" transform="translate(95.410156 0)"/>
      </g>
     </g>
    </g>
    <g id="xtick_10">
     <g id="line2d_28">
      <path d="M 381.486948 303.64 
L 381.486948 121.47011 
" clip-path="url(#pc0c3e0d727)" style="fill: none; stroke: #b0b0b0; stroke-width: 0.8; stroke-linecap: square"/>
     </g>
     <g id="line2d_29">
      <g>
       <use xlink:href="#mb28bf4bf46" x="381.486948" y="303.64" style="stroke: #000000; stroke-width: 0.8"/>
      </g>
     </g>
     <g id="text_9">
      <!-- 0.8 -->
      <g transform="translate(373.535385 318.238437) scale(0.1 -0.1)">
       <defs>
        <path id="DejaVuSans-38" d="M 2034 2216 
Q 1584 2216 1326 1975 
Q 1069 1734 1069 1313 
Q 1069 891 1326 650 
Q 1584 409 2034 409 
Q 2484 409 2743 651 
Q 3003 894 3003 1313 
Q 3003 1734 2745 1975 
Q 2488 2216 2034 2216 
z
M 1403 2484 
Q 997 2584 770 2862 
Q 544 3141 544 3541 
Q 544 4100 942 4425 
Q 1341 4750 2034 4750 
Q 2731 4750 3128 4425 
Q 3525 4100 3525 3541 
Q 3525 3141 3298 2862 
Q 3072 2584 2669 2484 
Q 3125 2378 3379 2068 
Q 3634 1759 3634 1313 
Q 3634 634 3220 271 
Q 2806 -91 2034 -91 
Q 1263 -91 848 271 
Q 434 634 434 1313 
Q 434 1759 690 2068 
Q 947 2378 1403 2484 
z
M 1172 3481 
Q 1172 3119 1398 2916 
Q 1625 2713 2034 2713 
Q 2441 2713 2670 2916 
Q 2900 3119 2900 3481 
Q 2900 3844 2670 4047 
Q 2441 4250 2034 4250 
Q 1625 4250 1398 4047 
Q 1172 3844 1172 3481 
z
" transform="scale(0.015625)"/>
       </defs>
       <use xlink:href="#DejaVuSans-30"/>
       <use xlink:href="#DejaVuSans-2e" transform="translate(63.623047 0)"/>
       <use xlink:href="#DejaVuSans-38" transform="translate(95.410156 0)"/>
      </g>
     </g>
    </g>
    <g id="text_10">
     <!-- Time [ns] -->
     <g transform="translate(225.362344 331.916562) scale(0.1 -0.1)">
      <use xlink:href="#DejaVuSans-54"/>
      <use xlink:href="#DejaVuSans-69" transform="translate(57.958984 0)"/>
      <use xlink:href="#DejaVuSans-6d" transform="translate(85.742188 0)"/>
      <use xlink:href="#DejaVuSans-65" transform="translate(183.154297 0)"/>
      <use xlink:href="#DejaVuSans-20" transform="translate(244.677734 0)"/>
      <use xlink:href="#DejaVuSans-5b" transform="translate(276.464844 0)"/>
      <use xlink:href="#DejaVuSans-6e" transform="translate(315.478516 0)"/>
      <use xlink:href="#DejaVuSans-73" transform="translate(378.857422 0)"/>
      <use xlink:href="#DejaVuSans-5d" transform="translate(430.957031 0)"/>
     </g>
    </g>
   </g>
   <g id="matplotlib.axis_4">
    <g id="ytick_3">
     <g id="line2d_30">
      <path d="M 47.72 293.243563 
L 450 293.243563 
" clip-path="url(#pc0c3e0d727)" style="fill: none; stroke: #b0b0b0; stroke-width: 0.8; stroke-linecap: square"/>
     </g>
     <g id="line2d_31">
      <g>
       <use xlink:href="#m2425857e48" x="47.72" y="293.243563" style="stroke: #000000; stroke-width: 0.8"/>
      </g>
     </g>
     <g id="text_11">
      <!-- 0.5 -->
      <g transform="translate(24.816875 297.042782) scale(0.1 -0.1)">
       <defs>
        <path id="DejaVuSans-35" d="M 691 4666 
L 3169 4666 
L 3169 4134 
L 1269 4134 
L 1269 2991 
Q 1406 3038 1543 3061 
Q 1681 3084 1819 3084 
Q 2600 3084 3056 2656 
Q 3513 2228 3513 1497 
Q 3513 744 3044 326 
Q 2575 -91 1722 -91 
Q 1428 -91 1123 -41 
Q 819 9 494 109 
L 494 744 
Q 775 591 1075 516 
Q 1375 441 1709 441 
Q 2250 441 2565 725 
Q 2881 1009 2881 1497 
Q 2881 1984 2565 2268 
Q 2250 2553 1709 2553 
Q 1456 2553 1204 2497 
Q 953 2441 691 2322 
L 691 4666 
z
" transform="scale(0.015625)"/>
       </defs>
       <use xlink:href="#DejaVuSans-30"/>
       <use xlink:href="#DejaVuSans-2e" transform="translate(63.623047 0)"/>
       <use xlink:href="#DejaVuSans-35" transform="translate(95.410156 0)"/>
      </g>
     </g>
    </g>
    <g id="ytick_4">
     <g id="line2d_32">
      <path d="M 47.72 264.927102 
L 450 264.927102 
" clip-path="url(#pc0c3e0d727)" style="fill: none; stroke: #b0b0b0; stroke-width: 0.8; stroke-linecap: square"/>
     </g>
     <g id="line2d_33">
      <g>
       <use xlink:href="#m2425857e48" x="47.72" y="264.927102" style="stroke: #000000; stroke-width: 0.8"/>
      </g>
     </g>
     <g id="text_12">
      <!-- 1.0 -->
      <g transform="translate(24.816875 268.726321) scale(0.1 -0.1)">
       <defs>
        <path id="DejaVuSans-31" d="M 794 531 
L 1825 531 
L 1825 4091 
L 703 3866 
L 703 4441 
L 1819 4666 
L 2450 4666 
L 2450 531 
L 3481 531 
L 3481 0 
L 794 0 
L 794 531 
z
" transform="scale(0.015625)"/>
       </defs>
       <use xlink:href="#DejaVuSans-31"/>
       <use xlink:href="#DejaVuSans-2e" transform="translate(63.623047 0)"/>
       <use xlink:href="#DejaVuSans-30" transform="translate(95.410156 0)"/>
      </g>
     </g>
    </g>
    <g id="ytick_5">
     <g id="line2d_34">
      <path d="M 47.72 236.610642 
L 450 236.610642 
" clip-path="url(#pc0c3e0d727)" style="fill: none; stroke: #b0b0b0; stroke-width: 0.8; stroke-linecap: square"/>
     </g>
     <g id="line2d_35">
      <g>
       <use xlink:href="#m2425857e48" x="47.72" y="236.610642" style="stroke: #000000; stroke-width: 0.8"/>
      </g>
     </g>
     <g id="text_13">
      <!-- 1.5 -->
      <g transform="translate(24.816875 240.409861) scale(0.1 -0.1)">
       <use xlink:href="#DejaVuSans-31"/>
       <use xlink:href="#DejaVuSans-2e" transform="translate(63.623047 0)"/>
       <use xlink:href="#DejaVuSans-35" transform="translate(95.410156 0)"/>
      </g>
     </g>
    </g>
    <g id="ytick_6">
     <g id="line2d_36">
      <path d="M 47.72 208.294181 
L 450 208.294181 
" clip-path="url(#pc0c3e0d727)" style="fill: none; stroke: #b0b0b0; stroke-width: 0.8; stroke-linecap: square"/>
     </g>
     <g id="line2d_37">
      <g>
       <use xlink:href="#m2425857e48" x="47.72" y="208.294181" style="stroke: #000000; stroke-width: 0.8"/>
      </g>
     </g>
     <g id="text_14">
      <!-- 2.0 -->
      <g transform="translate(24.816875 212.0934) scale(0.1 -0.1)">
       <use xlink:href="#DejaVuSans-32"/>
       <use xlink:href="#DejaVuSans-2e" transform="translate(63.623047 0)"/>
       <use xlink:href="#DejaVuSans-30" transform="translate(95.410156 0)"/>
      </g>
     </g>
    </g>
    <g id="ytick_7">
     <g id="line2d_38">
      <path d="M 47.72 179.977721 
L 450 179.977721 
" clip-path="url(#pc0c3e0d727)" style="fill: none; stroke: #b0b0b0; stroke-width: 0.8; stroke-linecap: square"/>
     </g>
     <g id="line2d_39">
      <g>
       <use xlink:href="#m2425857e48" x="47.72" y="179.977721" style="stroke: #000000; stroke-width: 0.8"/>
      </g>
     </g>
     <g id="text_15">
      <!-- 2.5 -->
      <g transform="translate(24.816875 183.77694) scale(0.1 -0.1)">
       <use xlink:href="#DejaVuSans-32"/>
       <use xlink:href="#DejaVuSans-2e" transform="translate(63.623047 0)"/>
       <use xlink:href="#DejaVuSans-35" transform="translate(95.410156 0)"/>
      </g>
     </g>
    </g>
    <g id="ytick_8">
     <g id="line2d_40">
      <path d="M 47.72 151.66126 
L 450 151.66126 
" clip-path="url(#pc0c3e0d727)" style="fill: none; stroke: #b0b0b0; stroke-width: 0.8; stroke-linecap: square"/>
     </g>
     <g id="line2d_41">
      <g>
       <use xlink:href="#m2425857e48" x="47.72" y="151.66126" style="stroke: #000000; stroke-width: 0.8"/>
      </g>
     </g>
     <g id="text_16">
      <!-- 3.0 -->
      <g transform="translate(24.816875 155.460479) scale(0.1 -0.1)">
       <defs>
        <path id="DejaVuSans-33" d="M 2597 2516 
Q 3050 2419 3304 2112 
Q 3559 1806 3559 1356 
Q 3559 666 3084 287 
Q 2609 -91 1734 -91 
Q 1441 -91 1130 -33 
Q 819 25 488 141 
L 488 750 
Q 750 597 1062 519 
Q 1375 441 1716 441 
Q 2309 441 2620 675 
Q 2931 909 2931 1356 
Q 2931 1769 2642 2001 
Q 2353 2234 1838 2234 
L 1294 2234 
L 1294 2753 
L 1863 2753 
Q 2328 2753 2575 2939 
Q 2822 3125 2822 3475 
Q 2822 3834 2567 4026 
Q 2313 4219 1838 4219 
Q 1578 4219 1281 4162 
Q 984 4106 628 3988 
L 628 4550 
Q 988 4650 1302 4700 
Q 1616 4750 1894 4750 
Q 2613 4750 3031 4423 
Q 3450 4097 3450 3541 
Q 3450 3153 3228 2886 
Q 3006 2619 2597 2516 
z
" transform="scale(0.015625)"/>
       </defs>
       <use xlink:href="#DejaVuSans-33"/>
       <use xlink:href="#DejaVuSans-2e" transform="translate(63.623047 0)"/>
       <use xlink:href="#DejaVuSans-30" transform="translate(95.410156 0)"/>
      </g>
     </g>
    </g>
    <g id="ytick_9">
     <g id="line2d_42">
      <path d="M 47.72 123.3448 
L 450 123.3448 
" clip-path="url(#pc0c3e0d727)" style="fill: none; stroke: #b0b0b0; stroke-width: 0.8; stroke-linecap: square"/>
     </g>
     <g id="line2d_43">
      <g>
       <use xlink:href="#m2425857e48" x="47.72" y="123.3448" style="stroke: #000000; stroke-width: 0.8"/>
      </g>
     </g>
     <g id="text_17">
      <!-- 3.5 -->
      <g transform="translate(24.816875 127.144019) scale(0.1 -0.1)">
       <use xlink:href="#DejaVuSans-33"/>
       <use xlink:href="#DejaVuSans-2e" transform="translate(63.623047 0)"/>
       <use xlink:href="#DejaVuSans-35" transform="translate(95.410156 0)"/>
      </g>
     </g>
    </g>
    <g id="text_18">
     <!-- Vout (pin Y) [V] -->
     <g transform="translate(18.737188 250.552711) rotate(-90) scale(0.1 -0.1)">
      <defs>
       <path id="DejaVuSans-75" d="M 544 1381 
L 544 3500 
L 1119 3500 
L 1119 1403 
Q 1119 906 1312 657 
Q 1506 409 1894 409 
Q 2359 409 2629 706 
Q 2900 1003 2900 1516 
L 2900 3500 
L 3475 3500 
L 3475 0 
L 2900 0 
L 2900 538 
Q 2691 219 2414 64 
Q 2138 -91 1772 -91 
Q 1169 -91 856 284 
Q 544 659 544 1381 
z
M 1991 3584 
L 1991 3584 
z
" transform="scale(0.015625)"/>
       <path id="DejaVuSans-59" d="M -13 4666 
L 666 4666 
L 1959 2747 
L 3244 4666 
L 3922 4666 
L 2272 2222 
L 2272 0 
L 1638 0 
L 1638 2222 
L -13 4666 
z
" transform="scale(0.015625)"/>
      </defs>
      <use xlink:href="#DejaVuSans-56"/>
      <use xlink:href="#DejaVuSans-6f" transform="translate(60.658203 0)"/>
      <use xlink:href="#DejaVuSans-75" transform="translate(121.839844 0)"/>
      <use xlink:href="#DejaVuSans-74" transform="translate(185.21875 0)"/>
      <use xlink:href="#DejaVuSans-20" transform="translate(224.427734 0)"/>
      <use xlink:href="#DejaVuSans-28" transform="translate(256.214844 0)"/>
      <use xlink:href="#DejaVuSans-70" transform="translate(295.228516 0)"/>
      <use xlink:href="#DejaVuSans-69" transform="translate(358.705078 0)"/>
      <use xlink:href="#DejaVuSans-6e" transform="translate(386.488281 0)"/>
      <use xlink:href="#DejaVuSans-20" transform="translate(449.867188 0)"/>
      <use xlink:href="#DejaVuSans-59" transform="translate(481.654297 0)"/>
      <use xlink:href="#DejaVuSans-29" transform="translate(542.738281 0)"/>
      <use xlink:href="#DejaVuSans-20" transform="translate(581.751953 0)"/>
      <use xlink:href="#DejaVuSans-5b" transform="translate(613.539062 0)"/>
      <use xlink:href="#DejaVuSans-56" transform="translate(652.552734 0)"/>
      <use xlink:href="#DejaVuSans-5d" transform="translate(720.960938 0)"/>
     </g>
    </g>
   </g>
   <g id="line2d_44">
    <path d="M 66.005455 134.671385 
L 66.104043 134.671385 
L 66.20263 134.671385 
L 66.399806 134.671385 
L 66.794158 134.671385 
L 67.582862 134.671385 
L 69.160269 134.671385 
L 72.315084 134.671385 
L 78.624714 134.671385 
L 88.483511 134.671385 
L 98.342308 134.671385 
L 105.440641 134.671385 
L 106.426521 134.789958 
L 108.39828 134.954898 
L 112.341799 135.068733 
L 120.228836 134.921234 
L 128.295248 133.59484 
L 136.190317 129.750559 
L 144.504393 130.305386 
L 144.875828 130.717069 
L 145.038305 130.887035 
L 145.363259 131.260822 
L 146.013166 132.198156 
L 147.312981 134.784692 
L 149.912612 142.317831 
L 154.094343 164.097857 
L 158.371319 194.177044 
L 163.428383 233.98522 
L 168.063137 267.821375 
L 173.309581 295.35955 
" clip-path="url(#pc0c3e0d727)" style="fill: none; stroke: #1f77b4; stroke-width: 1.5; stroke-linecap: square"/>
   </g>
   <g id="line2d_45">
    <path d="M 66.005455 134.671385 
L 66.104043 134.671385 
L 66.20263 134.671385 
L 66.399806 134.671385 
L 66.794158 134.671385 
L 67.582862 134.671385 
L 69.160269 134.671385 
L 72.315084 134.671385 
L 78.624714 134.671385 
L 88.483511 134.671385 
L 98.342308 134.671385 
L 105.440641 134.671385 
L 106.426521 134.745313 
L 108.39828 134.854573 
L 112.341799 134.953184 
L 120.228836 134.912052 
L 128.045629 134.079512 
L 135.932405 131.432868 
L 144.314395 131.040045 
L 144.875828 131.363902 
L 145.048354 131.464178 
L 145.393405 131.68815 
L 146.083509 132.269097 
L 147.463716 133.937169 
L 150.224129 138.976482 
L 155.744957 156.828049 
L 160.723996 178.475632 
L 167.359937 210.310984 
L 174.211659 243.350494 
L 180.560066 270.279598 
L 187.540362 292.40655 
" clip-path="url(#pc0c3e0d727)" style="fill: none; stroke: #ff7f0e; stroke-width: 1.5; stroke-linecap: square"/>
   </g>
   <g id="line2d_46">
    <path d="M 66.005455 134.671385 
L 66.104043 134.671385 
L 66.20263 134.671385 
L 66.399806 134.671385 
L 66.794158 134.671385 
L 67.582862 134.671385 
L 69.160269 134.671385 
L 72.315084 134.671385 
L 78.624714 134.671385 
L 88.483511 134.671385 
L 98.342308 134.671385 
L 105.440641 134.671385 
L 106.426521 134.705975 
L 108.39828 134.759586 
L 112.341799 134.818867 
L 120.228836 134.826574 
L 128.076482 134.422818 
L 135.998943 133.032471 
L 144.425925 132.567486 
L 144.875828 132.669284 
L 145.039908 132.706093 
L 145.368069 132.789644 
L 146.02439 133.013788 
L 147.337032 133.681903 
L 149.962317 135.788296 
L 155.212887 142.914446 
L 162.350406 156.654012 
L 168.897246 170.894096 
L 176.03646 186.847834 
L 185.895257 208.84617 
L 195.754053 230.425674 
L 205.61285 250.917958 
L 215.471647 269.194967 
L 225.330443 284.339169 
" clip-path="url(#pc0c3e0d727)" style="fill: none; stroke: #2ca02c; stroke-width: 1.5; stroke-linecap: square"/>
   </g>
   <g id="line2d_47">
    <path d="M 66.005455 134.671385 
L 66.104043 134.671385 
L 66.20263 134.671385 
L 66.399806 134.671385 
L 66.794158 134.671385 
L 67.582862 134.671385 
L 69.160269 134.671385 
L 72.315084 134.671385 
L 78.624714 134.671385 
L 88.483511 134.671385 
L 98.342308 134.671385 
L 105.440641 134.671385 
L 106.426521 134.689762 
L 108.39828 134.718887 
L 112.341799 134.754098 
L 120.228836 134.766891 
L 128.139098 134.547056 
L 136.031274 133.763277 
L 144.40848 133.417339 
L 144.875828 133.467131 
L 145.04047 133.484771 
L 145.369753 133.525367 
L 146.02832 133.637097 
L 147.345454 133.978383 
L 149.979722 135.078873 
L 155.248258 138.770273 
L 161.753406 145.191057 
L 168.809205 153.07094 
L 175.526994 160.842974 
L 185.385791 172.318207 
L 195.244587 183.759784 
L 205.103384 195.127393 
L 214.962181 206.405348 
L 224.820977 217.5731 
L 234.679774 228.593312 
L 244.538571 239.389288 
L 254.397367 249.816247 
L 264.256164 259.679643 
L 274.114961 268.808459 
L 283.973757 277.09428 
L 293.832554 284.479695 
" clip-path="url(#pc0c3e0d727)" style="fill: none; stroke: #d62728; stroke-width: 1.5; stroke-linecap: square"/>
   </g>
   <g id="line2d_48">
    <path d="M 66.005455 134.671385 
L 66.104043 134.671385 
L 66.20263 134.671385 
L 66.399806 134.671385 
L 66.794158 134.671385 
L 67.582862 134.671385 
L 69.160269 134.671385 
L 72.315084 134.671385 
L 78.624714 134.671385 
L 88.483511 134.671385 
L 98.342308 134.671385 
L 105.440641 134.671385 
L 106.426521 134.680873 
L 108.39828 134.696096 
L 112.341799 134.71542 
L 120.228836 134.724825 
L 128.199018 134.609274 
L 136.074416 134.189888 
L 144.415133 133.983706 
L 144.875828 134.007339 
L 145.040544 134.015864 
L 145.369978 134.035665 
L 146.028844 134.091061 
L 147.346577 134.262816 
L 149.982043 134.823657 
L 155.252974 136.705715 
L 161.646315 139.909139 
L 168.610279 143.855437 
L 175.385832 147.840587 
L 185.244629 153.689766 
L 195.103426 159.54103 
L 204.962222 165.377648 
L 214.821019 171.197394 
L 224.679816 176.999293 
L 234.538612 182.782371 
L 244.397409 188.54551 
L 254.256206 194.287379 
L 264.115002 200.006362 
L 273.973799 205.700439 
L 283.832596 211.367011 
L 293.691392 217.00262 
L 303.550189 222.602488 
L 313.408986 228.159777 
L 323.267782 233.664475 
L 333.126579 239.101952 
L 342.985376 244.451603 
L 352.844172 249.687108 
L 362.702969 254.779954 
L 372.561765 259.704262 
L 382.420562 264.439145 
L 392.279359 268.968418 
L 402.138155 273.279722 
L 411.996952 277.36395 
L 421.855749 281.214968 
L 431.714545 284.829448 
" clip-path="url(#pc0c3e0d727)" style="fill: none; stroke: #9467bd; stroke-width: 1.5; stroke-linecap: square"/>
   </g>
   <g id="line2d_49">
    <path d="M 47.72 284.182296 
L 450 284.182296 
" clip-path="url(#pc0c3e0d727)" style="fill: none; stroke-dasharray: 5.55,2.4; stroke-dashoffset: 0; stroke: #808080; stroke-width: 1.5"/>
   </g>
   <g id="line2d_50">
    <path d="M 47.72 172.049112 
L 450 172.049112 
" clip-path="url(#pc0c3e0d727)" style="fill: none; stroke-dasharray: 5.55,2.4; stroke-dashoffset: 0; stroke: #808080; stroke-width: 1.5"/>
   </g>
   <g id="line2d_51">
    <path d="M 105.440641 303.64 
L 105.440641 121.47011 
" clip-path="url(#pc0c3e0d727)" style="fill: none; stroke-dasharray: 1.5,2.475; stroke-dashoffset: 0; stroke: #ff0000; stroke-width: 1.5"/>
   </g>
   <g id="line2d_52">
    <path d="M 144.875828 303.64 
L 144.875828 121.47011 
" clip-path="url(#pc0c3e0d727)" style="fill: none; stroke-dasharray: 1.5,2.475; stroke-dashoffset: 0; stroke: #ff0000; stroke-width: 1.5"/>
   </g>
   <g id="patch_8">
    <path d="M 47.72 303.64 
L 47.72 121.47011 
" style="fill: none; stroke: #000000; stroke-width: 0.8; stroke-linejoin: miter; stroke-linecap: square"/>
   </g>
   <g id="patch_9">
    <path d="M 450 303.64 
L 450 121.47011 
" style="fill: none; stroke: #000000; stroke-width: 0.8; stroke-linejoin: miter; stroke-linecap: square"/>
   </g>
   <g id="patch_10">
    <path d="M 47.72 303.64 
L 450 303.64 
" style="fill: none; stroke: #000000; stroke-width: 0.8; stroke-linejoin: miter; stroke-linecap: square"/>
   </g>
   <g id="patch_11">
    <path d="M 47.72 121.47011 
L 450 121.47011 
" style="fill: none; stroke: #000000; stroke-width: 0.8; stroke-linejoin: miter; stroke-linecap: square"/>
   </g>
   <g id="legend_1">
    <g id="patch_12">
     <path d="M 325.032812 202.860735 
L 443 202.860735 
Q 445 202.860735 445 200.860735 
L 445 128.47011 
Q 445 126.47011 443 126.47011 
L 325.032812 126.47011 
Q 323.032812 126.47011 323.032812 128.47011 
L 323.032812 200.860735 
Q 323.032812 202.860735 325.032812 202.860735 
z
" style="fill: #ffffff; opacity: 0.8; stroke: #cccccc; stroke-linejoin: miter"/>
    </g>
    <g id="line2d_53">
     <path d="M 327.032812 134.568547 
L 337.032812 134.568547 
L 347.032812 134.568547 
" style="fill: none; stroke: #1f77b4; stroke-width: 1.5; stroke-linecap: square"/>
    </g>
    <g id="text_19">
     <!-- Fanout=0.005 pF -->
     <g transform="translate(355.032812 138.068547) scale(0.1 -0.1)">
      <defs>
       <path id="DejaVuSans-46" d="M 628 4666 
L 3309 4666 
L 3309 4134 
L 1259 4134 
L 1259 2759 
L 3109 2759 
L 3109 2228 
L 1259 2228 
L 1259 0 
L 628 0 
L 628 4666 
z
" transform="scale(0.015625)"/>
       <path id="DejaVuSans-3d" d="M 678 2906 
L 4684 2906 
L 4684 2381 
L 678 2381 
L 678 2906 
z
M 678 1631 
L 4684 1631 
L 4684 1100 
L 678 1100 
L 678 1631 
z
" transform="scale(0.015625)"/>
      </defs>
      <use xlink:href="#DejaVuSans-46"/>
      <use xlink:href="#DejaVuSans-61" transform="translate(48.394531 0)"/>
      <use xlink:href="#DejaVuSans-6e" transform="translate(109.673828 0)"/>
      <use xlink:href="#DejaVuSans-6f" transform="translate(173.052734 0)"/>
      <use xlink:href="#DejaVuSans-75" transform="translate(234.234375 0)"/>
      <use xlink:href="#DejaVuSans-74" transform="translate(297.613281 0)"/>
      <use xlink:href="#DejaVuSans-3d" transform="translate(336.822266 0)"/>
      <use xlink:href="#DejaVuSans-30" transform="translate(420.611328 0)"/>
      <use xlink:href="#DejaVuSans-2e" transform="translate(484.234375 0)"/>
      <use xlink:href="#DejaVuSans-30" transform="translate(516.021484 0)"/>
      <use xlink:href="#DejaVuSans-30" transform="translate(579.644531 0)"/>
      <use xlink:href="#DejaVuSans-35" transform="translate(643.267578 0)"/>
      <use xlink:href="#DejaVuSans-20" transform="translate(706.890625 0)"/>
      <use xlink:href="#DejaVuSans-70" transform="translate(738.677734 0)"/>
      <use xlink:href="#DejaVuSans-46" transform="translate(802.154297 0)"/>
     </g>
    </g>
    <g id="line2d_54">
     <path d="M 327.032812 149.246672 
L 337.032812 149.246672 
L 347.032812 149.246672 
" style="fill: none; stroke: #ff7f0e; stroke-width: 1.5; stroke-linecap: square"/>
    </g>
    <g id="text_20">
     <!-- Fanout=0.01 pF -->
     <g transform="translate(355.032812 152.746672) scale(0.1 -0.1)">
      <use xlink:href="#DejaVuSans-46"/>
      <use xlink:href="#DejaVuSans-61" transform="translate(48.394531 0)"/>
      <use xlink:href="#DejaVuSans-6e" transform="translate(109.673828 0)"/>
      <use xlink:href="#DejaVuSans-6f" transform="translate(173.052734 0)"/>
      <use xlink:href="#DejaVuSans-75" transform="translate(234.234375 0)"/>
      <use xlink:href="#DejaVuSans-74" transform="translate(297.613281 0)"/>
      <use xlink:href="#DejaVuSans-3d" transform="translate(336.822266 0)"/>
      <use xlink:href="#DejaVuSans-30" transform="translate(420.611328 0)"/>
      <use xlink:href="#DejaVuSans-2e" transform="translate(484.234375 0)"/>
      <use xlink:href="#DejaVuSans-30" transform="translate(516.021484 0)"/>
      <use xlink:href="#DejaVuSans-31" transform="translate(579.644531 0)"/>
      <use xlink:href="#DejaVuSans-20" transform="translate(643.267578 0)"/>
      <use xlink:href="#DejaVuSans-70" transform="translate(675.054688 0)"/>
      <use xlink:href="#DejaVuSans-46" transform="translate(738.53125 0)"/>
     </g>
    </g>
    <g id="line2d_55">
     <path d="M 327.032812 163.924797 
L 337.032812 163.924797 
L 347.032812 163.924797 
" style="fill: none; stroke: #2ca02c; stroke-width: 1.5; stroke-linecap: square"/>
    </g>
    <g id="text_21">
     <!-- Fanout=0.025 pF -->
     <g transform="translate(355.032812 167.424797) scale(0.1 -0.1)">
      <use xlink:href="#DejaVuSans-46"/>
      <use xlink:href="#DejaVuSans-61" transform="translate(48.394531 0)"/>
      <use xlink:href="#DejaVuSans-6e" transform="translate(109.673828 0)"/>
      <use xlink:href="#DejaVuSans-6f" transform="translate(173.052734 0)"/>
      <use xlink:href="#DejaVuSans-75" transform="translate(234.234375 0)"/>
      <use xlink:href="#DejaVuSans-74" transform="translate(297.613281 0)"/>
      <use xlink:href="#DejaVuSans-3d" transform="translate(336.822266 0)"/>
      <use xlink:href="#DejaVuSans-30" transform="translate(420.611328 0)"/>
      <use xlink:href="#DejaVuSans-2e" transform="translate(484.234375 0)"/>
      <use xlink:href="#DejaVuSans-30" transform="translate(516.021484 0)"/>
      <use xlink:href="#DejaVuSans-32" transform="translate(579.644531 0)"/>
      <use xlink:href="#DejaVuSans-35" transform="translate(643.267578 0)"/>
      <use xlink:href="#DejaVuSans-20" transform="translate(706.890625 0)"/>
      <use xlink:href="#DejaVuSans-70" transform="translate(738.677734 0)"/>
      <use xlink:href="#DejaVuSans-46" transform="translate(802.154297 0)"/>
     </g>
    </g>
    <g id="line2d_56">
     <path d="M 327.032812 178.602922 
L 337.032812 178.602922 
L 347.032812 178.602922 
" style="fill: none; stroke: #d62728; stroke-width: 1.5; stroke-linecap: square"/>
    </g>
    <g id="text_22">
     <!-- Fanout=0.05 pF -->
     <g transform="translate(355.032812 182.102922) scale(0.1 -0.1)">
      <use xlink:href="#DejaVuSans-46"/>
      <use xlink:href="#DejaVuSans-61" transform="translate(48.394531 0)"/>
      <use xlink:href="#DejaVuSans-6e" transform="translate(109.673828 0)"/>
      <use xlink:href="#DejaVuSans-6f" transform="translate(173.052734 0)"/>
      <use xlink:href="#DejaVuSans-75" transform="translate(234.234375 0)"/>
      <use xlink:href="#DejaVuSans-74" transform="translate(297.613281 0)"/>
      <use xlink:href="#DejaVuSans-3d" transform="translate(336.822266 0)"/>
      <use xlink:href="#DejaVuSans-30" transform="translate(420.611328 0)"/>
      <use xlink:href="#DejaVuSans-2e" transform="translate(484.234375 0)"/>
      <use xlink:href="#DejaVuSans-30" transform="translate(516.021484 0)"/>
      <use xlink:href="#DejaVuSans-35" transform="translate(579.644531 0)"/>
      <use xlink:href="#DejaVuSans-20" transform="translate(643.267578 0)"/>
      <use xlink:href="#DejaVuSans-70" transform="translate(675.054688 0)"/>
      <use xlink:href="#DejaVuSans-46" transform="translate(738.53125 0)"/>
     </g>
    </g>
    <g id="line2d_57">
     <path d="M 327.032812 193.281047 
L 337.032812 193.281047 
L 347.032812 193.281047 
" style="fill: none; stroke: #9467bd; stroke-width: 1.5; stroke-linecap: square"/>
    </g>
    <g id="text_23">
     <!-- Fanout=0.1 pF -->
     <g transform="translate(355.032812 196.781047) scale(0.1 -0.1)">
      <use xlink:href="#DejaVuSans-46"/>
      <use xlink:href="#DejaVuSans-61" transform="translate(48.394531 0)"/>
      <use xlink:href="#DejaVuSans-6e" transform="translate(109.673828 0)"/>
      <use xlink:href="#DejaVuSans-6f" transform="translate(173.052734 0)"/>
      <use xlink:href="#DejaVuSans-75" transform="translate(234.234375 0)"/>
      <use xlink:href="#DejaVuSans-74" transform="translate(297.613281 0)"/>
      <use xlink:href="#DejaVuSans-3d" transform="translate(336.822266 0)"/>
      <use xlink:href="#DejaVuSans-30" transform="translate(420.611328 0)"/>
      <use xlink:href="#DejaVuSans-2e" transform="translate(484.234375 0)"/>
      <use xlink:href="#DejaVuSans-31" transform="translate(516.021484 0)"/>
      <use xlink:href="#DejaVuSans-20" transform="translate(579.644531 0)"/>
      <use xlink:href="#DejaVuSans-70" transform="translate(611.431641 0)"/>
      <use xlink:href="#DejaVuSans-46" transform="translate(674.908203 0)"/>
     </g>
    </g>
   </g>
  </g>
 </g>
 <defs>
  <clipPath id="p233aa9e88f">
   <rect x="47.72" y="26.88" width="402.28" height="78.07281"/>
  </clipPath>
  <clipPath id="pc0c3e0d727">
   <rect x="47.72" y="121.47011" width="402.28" height="182.16989"/>
  </clipPath>
 </defs>
</svg>
